<svg width="70" height="70" viewBox="0 0 70 70" fill="none" xmlns="http://www.w3.org/2000/svg">
<path d="M66 0H4C1.79086 0 0 1.79087 0 4V66.0001C0 68.2092 1.79086 70.0001 4 70.0001H66C68.2091 70.0001 70 68.2092 70 66.0001V4C70 1.79086 68.2091 0 66 0Z" fill="#FEF9EF"/>
<path d="M44.7164 8.28748L9.8291 34.663L25.1531 54.9323L60.0404 28.5568L44.7164 8.28748Z" fill="#738BFF"/>
<mask id="mask0_26698_6290" style="mask-type:luminance" maskUnits="userSpaceOnUse" x="9" y="8" width="52" height="47">
<path d="M44.7164 8.28795L60.0404 28.5572L25.153 54.9328L9.8291 34.6634L44.7164 8.28795Z" fill="white"/>
</mask>
<g mask="url(#mask0_26698_6290)">
<path d="M36.0054 27.1151L19.3833 39.6817L26.0142 48.4525L42.6363 35.8859L36.0054 27.1151Z" fill="white"/>
<path d="M17.3347 38.4714L17.1182 38.3069C17.9951 37.1505 18.5685 36.0981 18.8576 35.0917C18.7705 35.0325 18.6846 34.9671 18.6011 34.8934C17.798 34.1942 17.3734 33.033 17.6141 32.1935C17.6915 31.8923 17.8887 31.694 18.15 31.6504C18.439 31.602 18.739 31.7557 18.935 32.052C19.1612 32.3508 19.3136 32.8116 19.3487 33.3076C19.3729 33.8543 19.3148 34.4047 19.1733 34.9647C19.5265 35.1558 20.0103 35.278 20.5595 35.0349C21.3953 34.6974 22.0896 33.8458 22.3823 32.8044C21.9832 32.7245 21.5888 32.508 21.2199 32.1585C20.672 31.5887 20.4095 30.5243 20.9006 29.9001C21.0494 29.7163 21.2417 29.6171 21.4582 29.6122C21.7195 29.6074 21.9892 29.7429 22.1973 29.9836C22.7295 30.6658 22.9134 31.5936 22.7186 32.5649C22.9375 32.5661 23.1565 32.5189 23.3682 32.4222C24.1979 32.0411 24.7665 30.9755 24.7471 29.8638C24.2016 29.4719 23.8786 28.8272 23.9185 28.1583C23.9234 27.9103 24.0359 27.7035 24.1967 27.6503C24.2754 27.6249 24.429 27.6116 24.5862 27.8172C24.8402 28.1136 25.0241 28.9264 25.0156 29.7163C25.0761 29.7526 25.1378 29.7864 25.2031 29.8155C25.7958 30.084 26.426 29.9715 26.8845 29.5155C27.3332 29.0909 27.6308 28.5127 27.9187 27.9527C28.0783 27.6442 28.2416 27.3249 28.4303 27.0322C29.5117 25.1718 31.4362 24.2936 32.8599 23.886L32.9349 24.1473C31.5596 24.5416 29.7016 25.3859 28.6626 27.1737C28.4775 27.4604 28.3166 27.7737 28.1606 28.0761C27.8618 28.6555 27.5534 29.2542 27.0732 29.709C26.5325 30.2437 25.791 30.3779 25.0918 30.061C25.0664 30.0501 25.0422 30.038 25.0181 30.0259C24.983 31.1751 24.3661 32.2625 23.4819 32.6677C23.2109 32.7923 22.9327 32.8479 22.6557 32.8358C22.346 33.9741 21.584 34.9115 20.6659 35.2829C20.1506 35.5115 19.6087 35.4921 19.0995 35.2333C18.7947 36.2517 18.2141 37.3114 17.3359 38.4689L17.3347 38.4714ZM21.2114 29.9727C21.1764 29.9993 21.1425 30.032 21.1123 30.0707C20.7191 30.569 20.9453 31.4835 21.4098 31.9673C21.74 32.2806 22.0932 32.473 22.4464 32.5407C22.6339 31.6371 22.4706 30.7783 21.9868 30.159C21.8368 29.9872 21.6396 29.8832 21.4618 29.8868C21.3699 29.888 21.2864 29.9183 21.2114 29.9751V29.9727ZM18.0459 31.9831C17.9673 32.0423 17.908 32.1391 17.8754 32.2661C17.6637 33.0028 18.0604 34.066 18.7777 34.6902C18.8225 34.7289 18.8733 34.77 18.9301 34.8123C19.0499 34.3079 19.0983 33.8144 19.0765 33.3233C19.0463 32.8818 18.9132 32.4742 18.7124 32.2093C18.5721 31.9976 18.3749 31.8887 18.1935 31.919C18.1379 31.9286 18.0883 31.9492 18.0447 31.9831H18.0459ZM24.2729 27.914C24.2439 27.9357 24.1919 28.0216 24.1895 28.1692C24.1592 28.6784 24.3709 29.1695 24.7423 29.5106C24.7193 28.7982 24.5451 28.1861 24.3758 27.9878C24.3189 27.914 24.2862 27.9067 24.2826 27.9079C24.2802 27.9079 24.2766 27.9103 24.2729 27.9128V27.914Z" stroke="#FEF9EF" stroke-width="0.416379" stroke-miterlimit="2" stroke-linejoin="round"/>
<path d="M41.2095 21.9638C43.203 21.9638 44.819 20.3478 44.819 18.3544C44.819 16.361 43.203 14.7449 41.2095 14.7449C39.2161 14.7449 37.6001 16.361 37.6001 18.3544C37.6001 20.3478 39.2161 21.9638 41.2095 21.9638Z" fill="#FEA8D8"/>
<path d="M46.8959 31.2295L46.8911 31.2332L46.7169 31.613L46.5415 31.4727L46.7604 30.9973L46.9552 30.8497L48.2313 32.5371L48.0112 32.704L46.8971 31.2295H46.8959Z" fill="#FEF9EF"/>
<path d="M49.1453 30.5396C49.5796 31.113 49.605 31.5908 49.2312 31.8738C48.901 32.123 48.445 31.9827 48.018 31.4287C47.5898 30.8626 47.5983 30.3667 47.9418 30.1078C48.2974 29.8393 48.7389 30.0026 49.1453 30.5396ZM48.249 31.2581C48.5805 31.6972 48.9034 31.8436 49.1115 31.6876C49.3449 31.511 49.2506 31.1541 48.9252 30.7235C48.6107 30.3086 48.2986 30.1163 48.0628 30.2941C47.8632 30.4453 47.9019 30.7997 48.249 31.2581Z" fill="#FEF9EF"/>
<path d="M50.6766 29.379C51.1108 29.9523 51.1362 30.4301 50.7625 30.7132C50.4323 30.9623 49.9762 30.822 49.5492 30.268C49.1211 29.7019 49.1295 29.206 49.473 28.9471C49.8287 28.6786 50.2702 28.8419 50.6766 29.379ZM49.7791 30.0975C50.1105 30.5366 50.4335 30.6829 50.6415 30.5269C50.875 30.3503 50.7806 29.9934 50.4552 29.5628C50.1407 29.1479 49.8287 28.9556 49.5928 29.1334C49.3932 29.2846 49.4319 29.639 49.7791 30.0975Z" fill="#FEF9EF"/>
<path d="M51.47 28.6931C51.372 28.5636 51.2885 28.4584 51.2026 28.3604L51.4022 28.2092L51.5655 28.404L51.5728 28.3979C51.5522 28.2249 51.5849 28.0254 51.7929 27.8681C51.9647 27.7387 52.1727 27.7447 52.3384 27.8512L52.3433 27.8475C52.3288 27.7484 52.3372 27.6564 52.3602 27.5778C52.3917 27.4641 52.4522 27.3697 52.5707 27.279C52.7364 27.1532 53.0654 27.0758 53.3956 27.5125L53.9545 28.2528L53.7307 28.4221L53.1936 27.7109C53.011 27.4689 52.8126 27.3903 52.6288 27.5306C52.4993 27.6286 52.4703 27.8016 52.5163 27.9419C52.5296 27.9806 52.5526 28.0278 52.584 28.0701L53.1707 28.8467L52.9469 29.0148L52.3784 28.2624C52.2272 28.0629 52.0288 27.9842 51.8546 28.1149C51.7119 28.2225 51.6937 28.4161 51.7445 28.5576C51.7566 28.6011 51.7808 28.6435 51.8111 28.6834L52.3844 29.4418L52.1606 29.6099L51.4675 28.6931H51.47Z" fill="#FEF9EF"/>
<path d="M54.5511 25.7843C54.614 25.8787 54.6854 25.9839 54.8015 26.1375L55.3531 26.8669C55.5708 27.1548 55.647 27.3749 55.6071 27.5757C55.5708 27.7826 55.422 27.9519 55.2636 28.0717C55.1051 28.1914 54.9188 28.2749 54.7676 28.2833L54.6926 28.0668C54.8148 28.0559 54.9805 28.0051 55.1354 27.8866C55.3688 27.71 55.4486 27.4584 55.2091 27.1415L55.1027 27.0012L55.0979 27.0048C55.116 27.1741 55.0519 27.3701 54.8571 27.5177C54.5463 27.7535 54.1217 27.6568 53.8592 27.3096C53.5375 26.8838 53.633 26.4326 53.9209 26.2149C54.1386 26.0504 54.3443 26.0734 54.4773 26.1363L54.4822 26.1327L54.3491 25.9355L54.5487 25.7843H54.5511ZM54.689 26.4593C54.66 26.4206 54.631 26.3879 54.5971 26.3649C54.4556 26.2633 54.2608 26.2391 54.0951 26.3649C53.8774 26.5294 53.8604 26.8318 54.0806 27.1221C54.2669 27.3689 54.5463 27.4802 54.793 27.2927C54.9334 27.1862 54.9938 27.0024 54.9334 26.8197C54.9164 26.7713 54.8886 26.723 54.8596 26.6842L54.689 26.458V26.4593Z" fill="#FEF9EF"/>
</g>
<path d="M9.8291 34.6634L9.95853 41.4432L25.2817 61.7125L25.1511 54.9339L9.8291 34.6634Z" fill="#B1BFFF"/>
<path d="M60.0405 28.5612L60.1712 35.3398L25.2815 61.7127L25.1509 54.9341L60.0405 28.5612Z" fill="#0454EF"/>
</svg>
