<svg width="70" height="70" viewBox="0 0 70 70" fill="none" xmlns="http://www.w3.org/2000/svg">
<path d="M66.0009 7.62939e-05H4.00098C1.79184 7.62939e-05 0.000976562 1.79093 0.000976562 4.00007V66C0.000976562 68.2091 1.79183 70 4.00097 70H66.0009C68.2101 70 70.0009 68.2091 70.0009 66V4.00008C70.0009 1.79094 68.2101 7.62939e-05 66.0009 7.62939e-05Z" fill="#FEF9EF"/>
<mask id="mask0_26698_6461" style="mask-type:luminance" maskUnits="userSpaceOnUse" x="0" y="0" width="70" height="70">
<path d="M65.9999 0H4C1.79086 0 0 1.79086 0 4V65.9998C0 68.2089 1.79087 69.9998 4 69.9998H65.9999C68.209 69.9998 69.9999 68.2089 69.9999 65.9998V4C69.9999 1.79086 68.209 0 65.9999 0Z" fill="white"/>
</mask>
<g mask="url(#mask0_26698_6461)">
<path d="M14.1876 36.6475C14.2008 36.6475 14.2132 36.6408 14.2205 36.6298C15.3659 34.9325 17.6805 34.4747 19.3864 35.6119C20.3006 36.2276 22.3734 36.5627 22.9848 35.6456L26.2758 30.709L27.3748 29.2508C27.8609 28.6168 28.7696 28.4477 29.4247 28.8915L51.488 43.5792C52.0374 43.9596 52.1853 44.6993 51.805 45.2699L49.438 48.7146C47.6417 51.2506 45.9299 53.1315 44.683 54.3572C41.3651 57.6963 37.6033 61.3735 32.2355 61.9652C32.1234 61.9776 32.0131 61.9885 31.9049 61.9978C30.4676 62.122 29.0777 62.7498 28.2775 63.9502L27.2683 65.464C26.0431 67.3018 23.5603 67.7987 21.7222 66.5741L11.7858 59.954C9.94872 58.7301 9.45044 56.2492 10.6725 54.4108L12.2087 52.0998C12.9086 51.0469 13.0333 49.7318 12.7727 48.4946C12.5381 47.3811 12.4758 46.4271 12.4758 45.7137C12.4336 42.6137 12.8754 39.114 13.7592 37.4822C13.763 37.4751 13.7649 37.4675 13.7649 37.4594C13.7649 37.4536 13.766 37.4477 13.7681 37.4422C13.8707 37.1766 13.9932 36.9112 14.1548 36.6651C14.1621 36.6541 14.1744 36.6475 14.1876 36.6475Z" fill="#EEBBAA"/>
<path d="M38.6177 18.1033C38.6177 18.0988 38.6228 18.0962 38.6265 18.099L38.7022 18.1558C40.097 19.0857 42.0836 18.5785 43.098 17.0146L48.17 9.30092C49.1844 7.75818 48.8885 5.75051 47.4937 4.84178C46.0989 3.91191 44.1546 4.41911 43.1191 5.94071L37.9625 13.6121C36.9291 15.1517 37.2006 17.1755 38.6091 18.1079C38.6128 18.1103 38.6177 18.1077 38.6177 18.1033Z" fill="#EEBBAA"/>
<path d="M33.6509 25.3834L33.8833 25.5313C35.2781 26.4612 37.1801 26.0808 38.11 24.6649L43.1397 17.0146C44.0485 15.6198 43.6681 13.7389 42.2944 12.8302L42.1465 12.7457C40.7517 11.8158 38.892 12.1962 37.941 13.5699L32.8267 21.1567C31.8757 22.5515 32.2561 24.4535 33.6509 25.3834Z" fill="#EEBBAA"/>
<path d="M28.2943 33.245C28.3012 33.245 28.3079 33.247 28.3137 33.2509L28.6852 33.4986C30.08 34.4284 31.982 34.0481 32.9119 32.6321L38.4277 24.2422C39.3364 22.8474 38.956 20.9665 37.5824 20.0578L37.2865 19.8676C35.8917 18.9377 34.0319 19.3181 33.0809 20.6918L27.4595 29.0183C26.5105 30.4102 26.8873 32.3071 28.2749 33.2391C28.2806 33.2429 28.2874 33.245 28.2943 33.245Z" fill="#EEBBAA"/>
<path d="M51.7202 26.7046C51.7202 26.7001 51.7254 26.6975 51.729 26.7002L51.8048 26.757C53.1996 27.6869 55.1861 27.1797 56.2005 25.6158L61.2725 17.9022C62.2869 16.3594 61.991 14.3518 60.5962 13.443C59.2014 12.5132 57.2572 13.0203 56.2216 14.5419L51.0651 22.2134C50.0316 23.753 50.3032 25.7767 51.7117 26.7091C51.7153 26.7115 51.7202 26.709 51.7202 26.7046Z" fill="#EEBBAA"/>
<path d="M46.7754 33.9847L47.0078 34.1326C48.4026 35.0625 50.3046 34.6821 51.2345 33.2661L56.2643 25.6159C57.173 24.2211 56.7926 22.3402 55.4189 21.4315L55.271 21.3469C53.8762 20.4171 52.0165 20.7975 51.0655 22.1711L45.9512 29.758C45.0002 31.1528 45.3806 33.0548 46.7754 33.9847Z" fill="#EEBBAA"/>
<path d="M41.3973 41.8462C41.4042 41.8462 41.4109 41.8483 41.4166 41.8521L41.7882 42.0998C43.183 43.0297 45.085 42.6493 46.0149 41.2334L51.5307 32.8434C52.4395 31.4486 52.0591 29.5678 50.6854 28.659L50.3895 28.4688C48.9947 27.539 47.135 27.9194 46.184 29.293L40.5625 37.6196C39.6135 39.0114 39.9903 40.9083 41.3779 41.8403C41.3836 41.8442 41.3904 41.8462 41.3973 41.8462Z" fill="#EEBBAA"/>
<path d="M19.7478 31.5616C19.7737 31.5709 19.8013 31.5755 19.8289 31.5755C19.8572 31.5755 19.8856 31.5805 19.9124 31.5897C21.8038 32.2348 23.8922 31.0532 24.6056 28.9549L26.1272 24.3901C26.8246 22.3191 25.8736 20.1212 23.9928 19.4661C22.1119 18.8321 20.0197 19.9733 19.28 22.0443L17.6739 26.588C16.9394 28.6657 17.8721 30.8893 19.7478 31.5616Z" fill="#EEBBAA"/>
<path d="M18.0129 36.4887C18.0129 36.4951 18.0171 36.5008 18.0232 36.5027L18.2877 36.584C20.1897 37.2391 22.2607 36.2248 22.8947 34.3016L24.4797 29.5255C25.1137 27.6446 24.0994 25.6158 22.2185 24.9607L22.0283 24.8973C20.1474 24.2633 18.0975 25.2354 17.4424 27.1163L15.7728 31.8501C15.0977 33.7489 16.1074 35.8161 18.0031 36.4749C18.0089 36.477 18.0129 36.4825 18.0129 36.4887Z" fill="#EEBBAA"/>
<path d="M16.0892 41.8146C16.0892 41.8094 16.0943 41.8058 16.0992 41.8075L16.5752 41.9731C18.4772 42.6282 20.5482 41.6138 21.1822 39.6907L22.9997 34.2383C23.6337 32.3574 22.6193 30.3286 20.7385 29.6735L20.3581 29.5467C18.4772 28.9127 16.4272 29.8848 15.7721 31.7657L13.849 37.197C13.1739 39.0956 14.1836 41.1628 16.0791 41.8217C16.084 41.8234 16.0892 41.8198 16.0892 41.8146Z" fill="#EEBBAA"/>
<path d="M46.204 20.8186L46.2885 20.882C47.6833 21.8119 49.6487 21.347 50.642 19.8254L55.9887 11.7102C56.982 10.2097 56.665 8.2443 55.2702 7.31443C53.8754 6.38456 51.9523 6.84949 50.9379 8.34996L45.5066 16.4018C44.4922 17.9022 44.8092 19.8888 46.204 20.8186Z" fill="#EEBBAA"/>
<path d="M40.7627 28.807C40.7695 28.807 40.7761 28.809 40.7818 28.8126L41.0055 28.955C42.4003 29.8848 44.3023 29.5044 45.2111 28.0885L50.6423 19.8465C51.551 18.4517 51.1706 16.5708 49.797 15.6621L49.649 15.5776C48.2542 14.6477 46.3945 15.0281 45.4435 16.4018L39.9277 24.5804C38.9999 25.9721 39.3556 27.8689 40.7429 28.801C40.7487 28.8049 40.7557 28.807 40.7627 28.807Z" fill="#EEBBAA"/>
<path d="M34.8556 37.4928C34.8694 37.4928 34.8828 37.4969 34.8943 37.5045L35.2571 37.7464C36.6519 38.6763 38.5539 38.2959 39.4627 36.8799L45.4011 27.856C46.3099 26.4612 45.9294 24.5803 44.5558 23.6716L44.2599 23.4814C42.8651 22.5515 41.0054 22.9319 40.0544 24.3056L34.0102 33.2661C33.0843 34.655 33.4367 36.5469 34.8168 37.481C34.8283 37.4887 34.8418 37.4928 34.8556 37.4928Z" fill="#EEBBAA"/>
<path d="M56.9081 32.1778C56.9151 32.1848 56.9228 32.1911 56.9311 32.1966L56.982 32.2306C58.25 33.076 60.0252 32.6533 60.934 31.2585L65.3509 24.5381C66.2596 23.1644 65.9637 21.3892 64.6957 20.5439C63.4277 19.6986 61.6736 20.1212 60.7649 21.4738L56.2635 28.1519C55.3367 29.521 55.6276 31.3101 56.8851 32.1589C56.8933 32.1644 56.9011 32.1708 56.9081 32.1778Z" fill="#EEBBAA"/>
<path d="M52.3964 38.8349C52.3964 38.8304 52.4014 38.8278 52.4051 38.8304L52.6077 38.9722C53.8757 39.8175 55.5875 39.4793 56.4328 38.1902L60.9342 31.343C61.7584 30.075 61.4203 28.3843 60.1523 27.539L60.0255 27.4545C58.7575 26.6091 57.0668 26.9473 56.2215 28.2153L51.6355 35.0202C50.7921 36.2853 51.1268 37.9922 52.3877 38.8395C52.3914 38.842 52.3964 38.8394 52.3964 38.8349Z" fill="#EEBBAA"/>
<path d="M47.4725 46.0623C47.4725 46.0578 47.4775 46.0551 47.4813 46.0575L47.8318 46.2843C49.0998 47.1297 50.8116 46.7915 51.6569 45.5024L56.6021 37.9789C57.4263 36.7109 57.0882 35.0202 55.8202 34.1749L55.5666 34.0059C54.2986 33.1605 52.6079 33.4986 51.7626 34.7666L46.7117 42.2478C45.8684 43.5129 46.2029 45.2196 47.4636 46.067C47.4674 46.0696 47.4725 46.0669 47.4725 46.0623Z" fill="#EEBBAA"/>
<path d="M-14.0892 76.2824C-14.2579 76.0579 -14.2492 75.7466 -14.0682 75.5318L-8.43774 68.849C-3.45226 63.4156 1.53321 57.8264 6.40184 52.2178C6.55602 52.0416 6.81945 52.0128 7.00806 52.1515L29.9706 69.0413C30.1292 69.158 30.191 69.3658 30.1218 69.5501C29.6545 70.7575 29.1676 71.9649 28.6807 73.1529C24.0691 84.1852 18.1645 94.2983 11.1303 103.268" fill="#738BFF"/>
<path d="M47.8923 46.3311C48.9204 46.3311 49.7538 45.4977 49.7538 44.4696C49.7538 43.4415 48.9204 42.608 47.8923 42.608C46.8642 42.608 46.0308 43.4415 46.0308 44.4696C46.0308 45.4977 46.8642 46.3311 47.8923 46.3311Z" fill="#F9685D"/>
<path d="M19.9989 41.9674C21.769 41.9674 23.2039 40.5325 23.2039 38.7624C23.2039 36.9923 21.769 35.5574 19.9989 35.5574C18.2289 35.5574 16.7939 36.9923 16.7939 38.7624C16.7939 40.5325 18.2289 41.9674 19.9989 41.9674Z" fill="#F9685D"/>
<path d="M33.5419 30.25C34.722 30.25 35.6786 29.2934 35.6786 28.1134C35.6786 26.9333 34.722 25.9767 33.5419 25.9767C32.3619 25.9767 31.4053 26.9333 31.4053 28.1134C31.4053 29.2934 32.3619 30.25 33.5419 30.25Z" fill="#F9685D"/>
<path d="M47.6333 34.8154C48.5183 34.8154 49.2358 34.0979 49.2358 33.2129C49.2358 32.3278 48.5183 31.6104 47.6333 31.6104C46.7482 31.6104 46.0308 32.3278 46.0308 33.2129C46.0308 34.0979 46.7482 34.8154 47.6333 34.8154Z" fill="#F9685D"/>
<path d="M33.5433 59.0608C35.9034 59.0608 37.8167 57.1475 37.8167 54.7874C37.8167 52.4273 35.9034 50.5141 33.5433 50.5141C31.1833 50.5141 29.27 52.4273 29.27 54.7874C29.27 57.1475 31.1833 59.0608 33.5433 59.0608Z" fill="#F9685D"/>
<path d="M41.6279 51.8375C42.5129 51.8375 43.2304 51.1201 43.2304 50.235C43.2304 49.35 42.5129 48.6325 41.6279 48.6325C40.7429 48.6325 40.0254 49.35 40.0254 50.235C40.0254 51.1201 40.7429 51.8375 41.6279 51.8375Z" fill="#F9685D"/>
<path d="M28.8183 46.2407C29.9983 46.2407 30.955 45.2841 30.955 44.1041C30.955 42.924 29.9983 41.9674 28.8183 41.9674C27.6383 41.9674 26.6816 42.924 26.6816 44.1041C26.6816 45.2841 27.6383 46.2407 28.8183 46.2407Z" fill="#F9685D"/>
<path d="M35.6792 40.3649C36.5642 40.3649 37.2817 39.6475 37.2817 38.7624C37.2817 37.8774 36.5642 37.1599 35.6792 37.1599C34.7941 37.1599 34.0767 37.8774 34.0767 38.7624C34.0767 39.6475 34.7941 40.3649 35.6792 40.3649Z" fill="#F9685D"/>
<path d="M25.9624 38.0203C26.8474 38.0203 27.5649 37.3029 27.5649 36.4178C27.5649 35.5328 26.8474 34.8153 25.9624 34.8153C25.0773 34.8153 24.3599 35.5328 24.3599 36.4178C24.3599 37.3029 25.0773 38.0203 25.9624 38.0203Z" fill="#F9685D"/>
<path d="M56.3265 33.2128C56.7268 33.2128 57.0514 32.8883 57.0514 32.4879C57.0514 32.0876 56.7268 31.763 56.3265 31.763C55.9261 31.763 55.6016 32.0876 55.6016 32.4879C55.6016 32.8883 55.9261 33.2128 56.3265 33.2128Z" fill="#F9685D"/>
</g>
</svg>
