<svg width="70" height="70" viewBox="0 0 70 70" fill="none" xmlns="http://www.w3.org/2000/svg">
<path d="M66 0H4C1.79086 0 0 1.79086 0 4V66C0 68.2091 1.79086 70 4 70H66C68.2091 70 70 68.2091 70 66V4C70 1.79086 68.2091 0 66 0Z" fill="#FEF9EF"/>
<path fill-rule="evenodd" clip-rule="evenodd" d="M47.1873 17.3446L59.3904 33.4881C60.4987 34.9543 60.2082 37.044 58.742 38.1523L27.1237 62.0529C25.6575 63.1612 23.5678 62.8707 22.4595 61.4045L10.2564 45.261C9.14812 43.7948 9.43861 41.7051 10.9048 40.5968L42.5231 16.6962C43.9893 15.5879 46.079 15.8784 47.1873 17.3446Z" fill="#5C8AE3"/>
<path d="M42.3745 26.7832C43.923 26.7832 45.1782 25.528 45.1782 23.9795C45.1782 22.4311 43.923 21.1758 42.3745 21.1758C40.8261 21.1758 39.5708 22.4311 39.5708 23.9795C39.5708 25.528 40.8261 26.7832 42.3745 26.7832Z" fill="#FFC9C4"/>
<path d="M42.0308 26.2911C43.5792 26.2911 44.8345 25.0358 44.8345 23.4874C44.8345 21.9389 43.5792 20.6837 42.0308 20.6837C40.4823 20.6837 39.2271 21.9389 39.2271 23.4874C39.2271 25.0358 40.4823 26.2911 42.0308 26.2911Z" fill="#FEF9EF"/>
<path fill-rule="evenodd" clip-rule="evenodd" d="M44.2334 23.8824C44.179 24.1858 43.8885 24.3886 43.5844 24.3341L40.2815 23.7416C39.9773 23.687 39.7754 23.3959 39.8298 23.0925C39.8844 22.7884 40.1749 22.5855 40.4791 22.6401L43.7819 23.2326C44.0861 23.2871 44.288 23.5783 44.2334 23.8824Z" fill="#738BFF"/>
<path d="M52.5547 38.3499C54.1032 38.3499 55.3584 37.0947 55.3584 35.5462C55.3584 33.9978 54.1032 32.7425 52.5547 32.7425C51.0063 32.7425 49.751 33.9978 49.751 35.5462C49.751 37.0947 51.0063 38.3499 52.5547 38.3499Z" fill="#FFC9C4"/>
<path d="M52.2119 37.857C53.7604 37.857 55.0156 36.6017 55.0156 35.0533C55.0156 33.5048 53.7604 32.2495 52.2119 32.2495C50.6635 32.2495 49.4082 33.5048 49.4082 35.0533C49.4082 36.6017 50.6635 37.857 52.2119 37.857Z" fill="#FEF9EF"/>
<path fill-rule="evenodd" clip-rule="evenodd" d="M54.4137 35.4484C54.3592 35.7526 54.0679 35.9552 53.7645 35.9008L50.4616 35.3084C50.1575 35.2538 49.9556 34.9627 50.0102 34.6585C50.0646 34.3551 50.3551 34.1523 50.6592 34.2069L53.9621 34.7993C54.2655 34.8538 54.4681 35.145 54.4137 35.4484Z" fill="#738BFF"/>
<path d="M34.7598 32.6845C36.3082 32.6845 37.5635 31.4293 37.5635 29.8808C37.5635 28.3323 36.3082 27.0771 34.7598 27.0771C33.2113 27.0771 31.9561 28.3323 31.9561 29.8808C31.9561 31.4293 33.2113 32.6845 34.7598 32.6845Z" fill="#FFC9C4"/>
<path d="M34.4165 32.1924C35.965 32.1924 37.2202 30.9371 37.2202 29.3886C37.2202 27.8402 35.965 26.5849 34.4165 26.5849C32.8681 26.5849 31.6128 27.8402 31.6128 29.3886C31.6128 30.9371 32.8681 32.1924 34.4165 32.1924Z" fill="#FEF9EF"/>
<path fill-rule="evenodd" clip-rule="evenodd" d="M36.6192 29.7837C36.5648 30.0871 36.2743 30.2899 35.9701 30.2353L32.6672 29.6429C32.3631 29.5883 32.1612 29.2972 32.2156 28.9938C32.2701 28.6896 32.5606 28.4868 32.8648 28.5414L36.1677 29.1338C36.4718 29.1884 36.6737 29.4795 36.6192 29.7837Z" fill="#738BFF"/>
<path d="M39.8286 38.5855C41.3771 38.5855 42.6324 37.3302 42.6324 35.7818C42.6324 34.2333 41.3771 32.9781 39.8286 32.9781C38.2802 32.9781 37.0249 34.2333 37.0249 35.7818C37.0249 37.3302 38.2802 38.5855 39.8286 38.5855Z" fill="#FFC9C4"/>
<path d="M39.4853 38.0934C41.0338 38.0934 42.2891 36.8381 42.2891 35.2897C42.2891 33.7412 41.0338 32.486 39.4853 32.486C37.9369 32.486 36.6816 33.7412 36.6816 35.2897C36.6816 36.8381 37.9369 38.0934 39.4853 38.0934Z" fill="#FEF9EF"/>
<path fill-rule="evenodd" clip-rule="evenodd" d="M41.6872 35.6848C41.6327 35.9882 41.3415 36.1908 41.0381 36.1364L37.7352 35.544C37.4311 35.4894 37.2292 35.1983 37.2836 34.8949C37.3382 34.5907 37.6285 34.3887 37.9327 34.4433L41.2355 35.0357C41.5389 35.0901 41.7417 35.3806 41.6872 35.6848Z" fill="#738BFF"/>
<path d="M44.9404 44.2511C46.4889 44.2511 47.7442 42.9959 47.7442 41.4474C47.7442 39.899 46.4889 38.6437 44.9404 38.6437C43.392 38.6437 42.1367 39.899 42.1367 41.4474C42.1367 42.9959 43.392 44.2511 44.9404 44.2511Z" fill="#FFC9C4"/>
<path d="M44.5967 43.7582C46.1451 43.7582 47.4004 42.5029 47.4004 40.9544C47.4004 39.406 46.1451 38.1507 44.5967 38.1507C43.0482 38.1507 41.793 39.406 41.793 40.9544C41.793 42.5029 43.0482 43.7582 44.5967 43.7582Z" fill="#FEF9EF"/>
<path fill-rule="evenodd" clip-rule="evenodd" d="M46.799 41.3496C46.7444 41.6538 46.4531 41.8564 46.1498 41.802L42.8469 41.2096C42.5427 41.155 42.3409 40.8639 42.3954 40.5597C42.4498 40.2563 42.7403 40.0535 43.0445 40.1081L46.3474 40.7005C46.6507 40.755 46.8534 41.0462 46.799 41.3496Z" fill="#738BFF"/>
<path d="M26.6734 38.5856C28.2218 38.5856 29.4771 37.3303 29.4771 35.7819C29.4771 34.2334 28.2218 32.9782 26.6734 32.9782C25.1249 32.9782 23.8696 34.2334 23.8696 35.7819C23.8696 37.3303 25.1249 38.5856 26.6734 38.5856Z" fill="#FFC9C4"/>
<path d="M26.3306 38.0935C27.879 38.0935 29.1343 36.8382 29.1343 35.2898C29.1343 33.7413 27.879 32.486 26.3306 32.486C24.7821 32.486 23.5269 33.7413 23.5269 35.2898C23.5269 36.8382 24.7821 38.0935 26.3306 38.0935Z" fill="#FEF9EF"/>
<path fill-rule="evenodd" clip-rule="evenodd" d="M28.5327 35.6848C28.4783 35.9882 28.1878 36.191 27.8837 36.1364L24.5808 35.544C24.2766 35.4894 24.0747 35.1983 24.1292 34.8949C24.1837 34.5907 24.4742 34.3879 24.7784 34.4425L28.0813 35.0349C28.3854 35.0895 28.5873 35.3806 28.5327 35.6848Z" fill="#738BFF"/>
<path d="M31.7422 44.4868C33.2907 44.4868 34.5459 43.2315 34.5459 41.6831C34.5459 40.1346 33.2907 38.8794 31.7422 38.8794C30.1938 38.8794 28.9385 40.1346 28.9385 41.6831C28.9385 43.2315 30.1938 44.4868 31.7422 44.4868Z" fill="#FFC9C4"/>
<path d="M31.3994 43.9946C32.9479 43.9946 34.2031 42.7394 34.2031 41.1909C34.2031 39.6425 32.9479 38.3872 31.3994 38.3872C29.851 38.3872 28.5957 39.6425 28.5957 41.1909C28.5957 42.7394 29.851 43.9946 31.3994 43.9946Z" fill="#FEF9EF"/>
<path fill-rule="evenodd" clip-rule="evenodd" d="M33.6012 41.5861C33.5468 41.8894 33.2555 42.0921 32.9522 42.0377L29.6493 41.4452C29.3451 41.3907 29.1432 41.0995 29.1977 40.7962C29.2522 40.492 29.5426 40.29 29.8467 40.3446L33.1496 40.937C33.453 40.9914 33.6558 41.2819 33.6012 41.5861Z" fill="#738BFF"/>
<path d="M36.8535 50.1523C38.402 50.1523 39.6573 48.897 39.6573 47.3486C39.6573 45.8001 38.402 44.5449 36.8535 44.5449C35.3051 44.5449 34.0498 45.8001 34.0498 47.3486C34.0498 48.897 35.3051 50.1523 36.8535 50.1523Z" fill="#FFC9C4"/>
<path d="M36.5103 49.6594C38.0587 49.6594 39.314 48.4041 39.314 46.8557C39.314 45.3072 38.0587 44.0519 36.5103 44.0519C34.9618 44.0519 33.7065 45.3072 33.7065 46.8557C33.7065 48.4041 34.9618 49.6594 36.5103 49.6594Z" fill="#FEF9EF"/>
<path fill-rule="evenodd" clip-rule="evenodd" d="M38.7125 47.2508C38.658 47.5549 38.3667 47.7576 38.0633 47.7032L34.7605 47.1107C34.4563 47.0562 34.2544 46.765 34.309 46.4609C34.3634 46.1575 34.6539 45.9547 34.9581 46.0092L38.2609 46.6017C38.5643 46.6561 38.767 46.9474 38.7125 47.2508Z" fill="#738BFF"/>
<path d="M18.6621 44.1952C20.2106 44.1952 21.4658 42.94 21.4658 41.3915C21.4658 39.8431 20.2106 38.5878 18.6621 38.5878C17.1137 38.5878 15.8584 39.8431 15.8584 41.3915C15.8584 42.94 17.1137 44.1952 18.6621 44.1952Z" fill="#FFC9C4"/>
<path d="M18.3193 43.7032C19.8678 43.7032 21.1231 42.4479 21.1231 40.8994C21.1231 39.351 19.8678 38.0957 18.3193 38.0957C16.7709 38.0957 15.5156 39.351 15.5156 40.8994C15.5156 42.4479 16.7709 43.7032 18.3193 43.7032Z" fill="#FEF9EF"/>
<path fill-rule="evenodd" clip-rule="evenodd" d="M20.5215 41.2945C20.4671 41.5979 20.1766 41.8007 19.8724 41.7461L16.5696 41.1537C16.2654 41.0991 16.0635 40.808 16.1179 40.5046C16.1725 40.2005 16.463 39.9976 16.7672 40.0522L20.07 40.6447C20.3742 40.6992 20.5761 40.9904 20.5215 41.2945Z" fill="#738BFF"/>
<path d="M28.8433 55.7619C30.3917 55.7619 31.647 54.5066 31.647 52.9581C31.647 51.4097 30.3917 50.1544 28.8433 50.1544C27.2948 50.1544 26.0396 51.4097 26.0396 52.9581C26.0396 54.5066 27.2948 55.7619 28.8433 55.7619Z" fill="#FFC9C4"/>
<path d="M28.5 55.269C30.0485 55.269 31.3037 54.0137 31.3037 52.4652C31.3037 50.9168 30.0485 49.6615 28.5 49.6615C26.9516 49.6615 25.6963 50.9168 25.6963 52.4652C25.6963 54.0137 26.9516 55.269 28.5 55.269Z" fill="#FEF9EF"/>
<path fill-rule="evenodd" clip-rule="evenodd" d="M30.7028 52.8603C30.6482 53.1645 30.3569 53.3672 30.0536 53.3128L26.7507 52.7203C26.4465 52.6657 26.2447 52.3746 26.2992 52.0704C26.3536 51.7671 26.6441 51.5643 26.9483 51.6188L30.2512 52.2113C30.5545 52.2657 30.7572 52.557 30.7028 52.8603Z" fill="#738BFF"/>
<path fill-rule="evenodd" clip-rule="evenodd" d="M50.1033 6.21138L62.3064 22.3549C63.4147 23.8211 63.1242 25.9108 61.658 27.0191L30.0397 50.9197C28.5735 52.028 26.4838 51.7375 25.3755 50.2713L13.1724 34.1278C12.0641 32.6616 12.3546 30.572 13.8208 29.4636L45.4392 5.56302C46.9053 4.45471 48.995 4.74519 50.1033 6.21138Z" fill="#0454EF"/>
<path d="M45.291 15.6499C46.8395 15.6499 48.0947 14.3946 48.0947 12.8462C48.0947 11.2977 46.8395 10.0425 45.291 10.0425C43.7426 10.0425 42.4873 11.2977 42.4873 12.8462C42.4873 14.3946 43.7426 15.6499 45.291 15.6499Z" fill="#FFC9C4"/>
<path d="M44.9482 15.1578C46.4967 15.1578 47.752 13.9025 47.752 12.3541C47.752 10.8056 46.4967 9.55037 44.9482 9.55037C43.3998 9.55037 42.1445 10.8056 42.1445 12.3541C42.1445 13.9025 43.3998 15.1578 44.9482 15.1578Z" fill="#FEF9EF"/>
<path fill-rule="evenodd" clip-rule="evenodd" d="M47.1504 12.7491C47.096 13.0525 46.8055 13.2553 46.5013 13.2007L43.1985 12.6083C42.8943 12.5537 42.6924 12.2626 42.7468 11.9592C42.8014 11.655 43.0919 11.4522 43.3961 11.5068L46.6989 12.0992C47.0031 12.1538 47.205 12.4449 47.1504 12.7491Z" fill="#738BFF"/>
<path d="M55.4722 27.2166C57.0206 27.2166 58.2759 25.9613 58.2759 24.4129C58.2759 22.8644 57.0206 21.6091 55.4722 21.6091C53.9237 21.6091 52.6685 22.8644 52.6685 24.4129C52.6685 25.9613 53.9237 27.2166 55.4722 27.2166Z" fill="#FFC9C4"/>
<path d="M55.1284 26.7237C56.6769 26.7237 57.9321 25.4684 57.9321 23.92C57.9321 22.3715 56.6769 21.1163 55.1284 21.1163C53.58 21.1163 52.3247 22.3715 52.3247 23.92C52.3247 25.4684 53.58 26.7237 55.1284 26.7237Z" fill="#FEF9EF"/>
<path fill-rule="evenodd" clip-rule="evenodd" d="M57.3302 24.3151C57.2757 24.6192 56.9844 24.8219 56.681 24.7675L53.3781 24.175C53.074 24.1205 52.8721 23.8293 52.9267 23.5252C52.9811 23.2218 53.2716 23.019 53.5757 23.0735L56.8786 23.666C57.182 23.7204 57.3846 24.0117 57.3302 24.3151Z" fill="#738BFF"/>
<path d="M37.6758 21.5512C39.2242 21.5512 40.4795 20.2959 40.4795 18.7475C40.4795 17.199 39.2242 15.9437 37.6758 15.9437C36.1273 15.9437 34.8721 17.199 34.8721 18.7475C34.8721 20.2959 36.1273 21.5512 37.6758 21.5512Z" fill="#FFC9C4"/>
<path d="M37.333 21.0591C38.8815 21.0591 40.1367 19.8038 40.1367 18.2553C40.1367 16.7069 38.8815 15.4516 37.333 15.4516C35.7846 15.4516 34.5293 16.7069 34.5293 18.2553C34.5293 19.8038 35.7846 21.0591 37.333 21.0591Z" fill="#FEF9EF"/>
<path fill-rule="evenodd" clip-rule="evenodd" d="M39.5352 18.6504C39.4808 18.9537 39.1903 19.1565 38.8861 19.102L35.5832 18.5095C35.2791 18.455 35.0772 18.1638 35.1316 17.8605C35.1862 17.5563 35.4767 17.3535 35.7808 17.408L39.0837 18.0005C39.3879 18.0551 39.5897 18.3462 39.5352 18.6504Z" fill="#738BFF"/>
<path d="M42.7451 27.4524C44.2936 27.4524 45.5489 26.1971 45.5489 24.6486C45.5489 23.1002 44.2936 21.8449 42.7451 21.8449C41.1967 21.8449 39.9414 23.1002 39.9414 24.6486C39.9414 26.1971 41.1967 27.4524 42.7451 27.4524Z" fill="#FFC9C4"/>
<path d="M42.4023 26.9602C43.9508 26.9602 45.2061 25.7049 45.2061 24.1565C45.2061 22.608 43.9508 21.3528 42.4023 21.3528C40.8539 21.3528 39.5986 22.608 39.5986 24.1565C39.5986 25.7049 40.8539 26.9602 42.4023 26.9602Z" fill="#FEF9EF"/>
<path fill-rule="evenodd" clip-rule="evenodd" d="M44.6042 24.5516C44.5497 24.855 44.2585 25.0577 43.9551 25.0033L40.6522 24.4108C40.3481 24.3562 40.1462 24.0651 40.2006 23.7617C40.2552 23.4576 40.5455 23.2555 40.8497 23.3101L44.1525 23.9026C44.4559 23.957 44.6587 24.2475 44.6042 24.5516Z" fill="#738BFF"/>
<path d="M47.8569 33.1179C49.4054 33.1179 50.6607 31.8626 50.6607 30.3142C50.6607 28.7657 49.4054 27.5104 47.8569 27.5104C46.3085 27.5104 45.0532 28.7657 45.0532 30.3142C45.0532 31.8626 46.3085 33.1179 47.8569 33.1179Z" fill="#FFC9C4"/>
<path d="M47.5132 32.6249C49.0617 32.6249 50.3169 31.3697 50.3169 29.8212C50.3169 28.2728 49.0617 27.0175 47.5132 27.0175C45.9647 27.0175 44.7095 28.2728 44.7095 29.8212C44.7095 31.3697 45.9647 32.6249 47.5132 32.6249Z" fill="#FEF9EF"/>
<path fill-rule="evenodd" clip-rule="evenodd" d="M49.716 30.2164C49.6614 30.5205 49.3701 30.7232 49.0668 30.6688L45.7639 30.0763C45.4597 30.0218 45.2579 29.7306 45.3124 29.4265C45.3668 29.1231 45.6573 28.9203 45.9615 28.9748L49.2643 29.5673C49.5677 29.6217 49.7704 29.913 49.716 30.2164Z" fill="#738BFF"/>
<path d="M29.5894 27.4525C31.1378 27.4525 32.3931 26.1972 32.3931 24.6487C32.3931 23.1003 31.1378 21.845 29.5894 21.845C28.0409 21.845 26.7856 23.1003 26.7856 24.6487C26.7856 26.1972 28.0409 27.4525 29.5894 27.4525Z" fill="#FFC9C4"/>
<path d="M29.2466 26.9603C30.795 26.9603 32.0503 25.705 32.0503 24.1566C32.0503 22.6081 30.795 21.3528 29.2466 21.3528C27.6981 21.3528 26.4429 22.6081 26.4429 24.1566C26.4429 25.705 27.6981 26.9603 29.2466 26.9603Z" fill="#FEF9EF"/>
<path fill-rule="evenodd" clip-rule="evenodd" d="M31.4488 24.5517C31.3943 24.855 31.1038 25.0578 30.7997 25.0033L27.4968 24.4108C27.1927 24.3562 26.9908 24.0651 27.0452 23.7617C27.0997 23.4576 27.3902 23.2548 27.6944 23.3093L30.9973 23.9018C31.3014 23.9563 31.5033 24.2475 31.4488 24.5517Z" fill="#738BFF"/>
<path d="M34.6592 33.3534C36.2076 33.3534 37.4629 32.0982 37.4629 30.5497C37.4629 29.0013 36.2076 27.746 34.6592 27.746C33.1107 27.746 31.8555 29.0013 31.8555 30.5497C31.8555 32.0982 33.1107 33.3534 34.6592 33.3534Z" fill="#FFC9C4"/>
<path d="M34.3159 32.8613C35.8644 32.8613 37.1196 31.6061 37.1196 30.0576C37.1196 28.5092 35.8644 27.2539 34.3159 27.2539C32.7675 27.2539 31.5122 28.5092 31.5122 30.0576C31.5122 31.6061 32.7675 32.8613 34.3159 32.8613Z" fill="#FEF9EF"/>
<path fill-rule="evenodd" clip-rule="evenodd" d="M36.5177 30.4527C36.4633 30.7561 36.172 30.9588 35.8687 30.9044L32.5658 30.3119C32.2616 30.2573 32.0598 29.9662 32.1142 29.6628C32.1687 29.3587 32.4591 29.1566 32.7632 29.2112L36.0661 29.8037C36.3695 29.8581 36.5723 30.1486 36.5177 30.4527Z" fill="#738BFF"/>
<path d="M39.7705 39.0191C41.319 39.0191 42.5743 37.7638 42.5743 36.2153C42.5743 34.6669 41.319 33.4116 39.7705 33.4116C38.2221 33.4116 36.9668 34.6669 36.9668 36.2153C36.9668 37.7638 38.2221 39.0191 39.7705 39.0191Z" fill="#FFC9C4"/>
<path d="M39.4273 38.5261C40.9757 38.5261 42.231 37.2708 42.231 35.7224C42.231 34.1739 40.9757 32.9186 39.4273 32.9186C37.8788 32.9186 36.6235 34.1739 36.6235 35.7224C36.6235 37.2708 37.8788 38.5261 39.4273 38.5261Z" fill="#FEF9EF"/>
<path fill-rule="evenodd" clip-rule="evenodd" d="M41.63 36.1175C41.5755 36.4217 41.2842 36.6244 40.9808 36.57L37.678 35.9775C37.3738 35.9229 37.1719 35.6318 37.2265 35.3276C37.2809 35.0243 37.5714 34.8214 37.8755 34.876L41.1784 35.4685C41.4818 35.5229 41.6844 35.8142 41.63 36.1175Z" fill="#738BFF"/>
<path d="M21.5796 33.062C23.1281 33.062 24.3833 31.8067 24.3833 30.2583C24.3833 28.7098 23.1281 27.4546 21.5796 27.4546C20.0312 27.4546 18.7759 28.7098 18.7759 30.2583C18.7759 31.8067 20.0312 33.062 21.5796 33.062Z" fill="#FFC9C4"/>
<path d="M21.2358 32.5699C22.7843 32.5699 24.0396 31.3146 24.0396 29.7661C24.0396 28.2177 22.7843 26.9624 21.2358 26.9624C19.6874 26.9624 18.4321 28.2177 18.4321 29.7661C18.4321 31.3146 19.6874 32.5699 21.2358 32.5699Z" fill="#FEF9EF"/>
<path fill-rule="evenodd" clip-rule="evenodd" d="M23.4385 30.1613C23.3841 30.4647 23.0936 30.6675 22.7894 30.6129L19.4866 30.0204C19.1824 29.9659 18.9805 29.6747 19.0349 29.3714C19.0895 29.0672 19.38 28.8644 19.6841 28.919L22.987 29.5114C23.2912 29.566 23.4931 29.8571 23.4385 30.1613Z" fill="#738BFF"/>
<path d="M31.7593 44.6287C33.3077 44.6287 34.563 43.3735 34.563 41.825C34.563 40.2765 33.3077 39.0213 31.7593 39.0213C30.2108 39.0213 28.9556 40.2765 28.9556 41.825C28.9556 43.3735 30.2108 44.6287 31.7593 44.6287Z" fill="#FFC9C4"/>
<path d="M31.4165 44.1357C32.965 44.1357 34.2202 42.8805 34.2202 41.332C34.2202 39.7836 32.965 38.5283 31.4165 38.5283C29.8681 38.5283 28.6128 39.7836 28.6128 41.332C28.6128 42.8805 29.8681 44.1357 31.4165 44.1357Z" fill="#FEF9EF"/>
<path fill-rule="evenodd" clip-rule="evenodd" d="M33.6188 41.7272C33.5642 42.0313 33.273 42.234 32.9696 42.1796L29.6667 41.5871C29.3626 41.5326 29.1607 41.2414 29.2152 40.9373C29.2697 40.6339 29.5601 40.4311 29.8643 40.4857L33.1672 41.0781C33.4705 41.1325 33.6732 41.4238 33.6188 41.7272Z" fill="#738BFF"/>
</svg>
