<svg width="70" height="70" viewBox="0 0 70 70" fill="none" xmlns="http://www.w3.org/2000/svg">
<path d="M66 0H4C1.79086 0 0 1.79086 0 4V66C0 68.2091 1.79086 70 4 70H66C68.2091 70 70 68.2091 70 66V4C70 1.79086 68.2091 0 66 0Z" fill="#FEF9EF"/>
<path d="M14.7464 38.5779C18.6009 38.5779 21.7256 35.4531 21.7256 31.5986C21.7256 27.744 18.6009 24.6193 14.7464 24.6193C10.8918 24.6193 7.76709 27.744 7.76709 31.5986C7.76709 35.4531 10.8918 38.5779 14.7464 38.5779Z" fill="#B1BFFF"/>
<path d="M52.0637 23.8619C55.9183 23.8619 59.043 20.7372 59.043 16.8826C59.043 13.0281 55.9183 9.90337 52.0637 9.90337C48.2092 9.90337 45.0845 13.0281 45.0845 16.8826C45.0845 20.7372 48.2092 23.8619 52.0637 23.8619Z" fill="#0036A0"/>
<path d="M48.6622 59.3278C51.9525 59.3278 54.6199 56.6605 54.6199 53.3702C54.6199 50.0799 51.9525 47.4125 48.6622 47.4125C45.3719 47.4125 42.7046 50.0799 42.7046 53.3702C42.7046 56.6605 45.3719 59.3278 48.6622 59.3278Z" fill="#FFE802"/>
<path d="M53.6085 18.1136L40.3252 34.8005L50.3772 52.3896C50.5083 52.6206 50.5436 52.8946 50.4731 53.151C50.4046 53.4073 50.2344 53.6246 50.0034 53.7577L48.3143 54.7226C47.8348 54.9966 47.2222 54.8302 46.9482 54.3507L36.7181 36.4485L14.4924 33.5577C13.9444 33.4853 13.5569 32.9842 13.6293 32.4362L13.8798 30.5045C13.915 30.2422 14.0521 30.0035 14.2615 29.841C14.4728 29.6786 14.739 29.6062 15.0032 29.6414L37.0958 32.5165L50.5182 15.6535C50.6845 15.4441 50.9252 15.311 51.1894 15.2816C51.4536 15.2523 51.7178 15.3286 51.9273 15.493L53.45 16.7045C53.8825 17.049 53.953 17.6792 53.6085 18.1136Z" fill="#738BFF"/>
<path d="M37.9447 46.616C44.5708 46.616 49.9422 41.2446 49.9422 34.6185C49.9422 27.9925 44.5708 22.6211 37.9447 22.6211C31.3187 22.6211 25.9473 27.9925 25.9473 34.6185C25.9473 41.2446 31.3187 46.616 37.9447 46.616Z" fill="#FF3F36"/>
</svg>
