<svg width="70" height="70" viewBox="0 0 70 70" fill="none" xmlns="http://www.w3.org/2000/svg">
<path d="M70 0H0V70H70V0Z" fill="#FEF9EF"/>
<path d="M34.5229 10.8217V60.0852" stroke="#DAE0FF" stroke-width="2.62764" stroke-miterlimit="1.5" stroke-linecap="round" stroke-linejoin="round"/>
<path d="M26.8872 14.8418L34.5235 23.7348" stroke="#DAE0FF" stroke-width="2.71155" stroke-miterlimit="1.5" stroke-linecap="round" stroke-linejoin="round"/>
<path d="M42.1592 14.8418L34.5229 23.7348" stroke="#DAE0FF" stroke-width="2.71155" stroke-miterlimit="1.5" stroke-linecap="round" stroke-linejoin="round"/>
<path d="M42.1592 56.3063L34.5229 47.4132" stroke="#DAE0FF" stroke-width="2.71155" stroke-miterlimit="1.5" stroke-linecap="round" stroke-linejoin="round"/>
<path d="M26.8872 56.3063L34.5235 47.4132" stroke="#DAE0FF" stroke-width="2.71155" stroke-miterlimit="1.5" stroke-linecap="round" stroke-linejoin="round"/>
<path d="M54.8154 21.4904L14.2329 49.4179" stroke="#DAE0FF" stroke-width="2.62764" stroke-miterlimit="1.5" stroke-linecap="round" stroke-linejoin="round"/>
<path d="M47.1753 17.4791L44.1783 28.8113" stroke="#DAE0FF" stroke-width="2.71155" stroke-miterlimit="1.5" stroke-linecap="round" stroke-linejoin="round"/>
<path d="M55.833 30.0602L44.178 28.811" stroke="#DAE0FF" stroke-width="2.71155" stroke-miterlimit="1.5" stroke-linecap="round" stroke-linejoin="round"/>
<path d="M21.6748 53.5665L24.6718 42.2344" stroke="#DAE0FF" stroke-width="2.71155" stroke-miterlimit="1.5" stroke-linecap="round" stroke-linejoin="round"/>
<path d="M13.0176 40.9854L24.6726 42.2346" stroke="#DAE0FF" stroke-width="2.71155" stroke-miterlimit="1.5" stroke-linecap="round" stroke-linejoin="round"/>
<path d="M55.8555 47.7694L13.1921 23.1377" stroke="#DAE0FF" stroke-width="2.62764" stroke-miterlimit="1.5" stroke-linecap="round" stroke-linejoin="round"/>
<path d="M56.1924 39.1468L44.6726 41.3134" stroke="#DAE0FF" stroke-width="2.71155" stroke-miterlimit="1.5" stroke-linecap="round" stroke-linejoin="round"/>
<path d="M48.5562 52.3731L44.6727 41.3133" stroke="#DAE0FF" stroke-width="2.71155" stroke-miterlimit="1.5" stroke-linecap="round" stroke-linejoin="round"/>
<path d="M12.647 31.6405L24.1667 29.4738" stroke="#DAE0FF" stroke-width="2.71155" stroke-miterlimit="1.5" stroke-linecap="round" stroke-linejoin="round"/>
<path d="M20.2832 18.4146L24.1667 29.4743" stroke="#DAE0FF" stroke-width="2.71155" stroke-miterlimit="1.5" stroke-linecap="round" stroke-linejoin="round"/>
<path d="M35.6836 9.91344V59.1769" stroke="#738BFF" stroke-width="2.62764" stroke-miterlimit="1.5" stroke-linecap="round" stroke-linejoin="round"/>
<path d="M28.0479 13.9335L35.6841 22.8265" stroke="#738BFF" stroke-width="2.71155" stroke-miterlimit="1.5" stroke-linecap="round" stroke-linejoin="round"/>
<path d="M43.3203 13.9335L35.684 22.8265" stroke="#738BFF" stroke-width="2.71155" stroke-miterlimit="1.5" stroke-linecap="round" stroke-linejoin="round"/>
<path d="M43.3203 55.398L35.684 46.505" stroke="#738BFF" stroke-width="2.71155" stroke-miterlimit="1.5" stroke-linecap="round" stroke-linejoin="round"/>
<path d="M28.0479 55.398L35.6841 46.505" stroke="#738BFF" stroke-width="2.71155" stroke-miterlimit="1.5" stroke-linecap="round" stroke-linejoin="round"/>
<path d="M55.9751 20.582L15.3925 48.5094" stroke="#738BFF" stroke-width="2.62764" stroke-miterlimit="1.5" stroke-linecap="round" stroke-linejoin="round"/>
<path d="M48.335 16.5708L45.338 27.9029" stroke="#738BFF" stroke-width="2.71155" stroke-miterlimit="1.5" stroke-linecap="round" stroke-linejoin="round"/>
<path d="M56.9932 29.1516L45.3382 27.9025" stroke="#738BFF" stroke-width="2.71155" stroke-miterlimit="1.5" stroke-linecap="round" stroke-linejoin="round"/>
<path d="M22.835 52.658L25.8319 41.3259" stroke="#738BFF" stroke-width="2.71155" stroke-miterlimit="1.5" stroke-linecap="round" stroke-linejoin="round"/>
<path d="M14.1772 40.0767L25.8322 41.3259" stroke="#738BFF" stroke-width="2.71155" stroke-miterlimit="1.5" stroke-linecap="round" stroke-linejoin="round"/>
<path d="M57.0166 46.8608L14.3532 22.2291" stroke="#738BFF" stroke-width="2.62764" stroke-miterlimit="1.5" stroke-linecap="round" stroke-linejoin="round"/>
<path d="M57.3535 38.2382L45.8338 40.4049" stroke="#738BFF" stroke-width="2.71155" stroke-miterlimit="1.5" stroke-linecap="round" stroke-linejoin="round"/>
<path d="M49.7178 51.4641L45.8343 40.4044" stroke="#738BFF" stroke-width="2.71155" stroke-miterlimit="1.5" stroke-linecap="round" stroke-linejoin="round"/>
<path d="M13.8076 30.732L25.3274 28.5654" stroke="#738BFF" stroke-width="2.71155" stroke-miterlimit="1.5" stroke-linecap="round" stroke-linejoin="round"/>
<path d="M21.4443 17.5059L25.3278 28.5656" stroke="#738BFF" stroke-width="2.71155" stroke-miterlimit="1.5" stroke-linecap="round" stroke-linejoin="round"/>
</svg>
