<svg width="70" height="70" viewBox="0 0 70 70" fill="none" xmlns="http://www.w3.org/2000/svg">
<path d="M66 0H4C1.79086 0 0 1.79086 0 4V66C0 68.2091 1.79086 70 4 70H66C68.2091 70 70 68.2091 70 66V4C70 1.79086 68.2091 0 66 0Z" fill="#FEF9EF"/>
<path d="M35.5313 61.2743C49.8624 61.2743 61.48 49.6566 61.48 35.3255C61.48 20.9945 49.8624 9.3768 35.5313 9.3768C21.2003 9.3768 9.58252 20.9945 9.58252 35.3255C9.58252 49.6566 21.2003 61.2743 35.5313 61.2743Z" fill="#FFE802"/>
<path d="M49.8046 36.8923H35.5312C34.6651 36.8923 33.9644 36.1893 33.9644 35.3255V16.4733C33.9644 15.6095 34.6651 14.9088 35.5312 14.9088C36.3973 14.9088 37.098 15.6095 37.098 16.4733V33.7587H49.8046C50.6707 33.7587 51.3714 34.4594 51.3714 35.3255C51.3714 36.1893 50.6707 36.8923 49.8046 36.8923Z" fill="#738BFF"/>
</svg>
