<svg width="70" height="70" viewBox="0 0 70 70" fill="none" xmlns="http://www.w3.org/2000/svg">
<path d="M66 0H4C1.79086 0 0 1.79086 0 4V66C0 68.2091 1.79086 70 4 70H66C68.2091 70 70 68.2091 70 66V4C70 1.79086 68.2091 0 66 0Z" fill="#FEF9EF"/>
<path d="M48.9527 44.6232L53.4894 12.2568L60.7116 13.2691L56.176 45.6355L48.9527 44.6232ZM47.4404 55.4129L48.3692 48.789L55.5913 49.8012L54.6638 56.4251L47.4404 55.4129Z" fill="#FF3F36"/>
<path d="M25.1919 26.5743L24.7506 25.5191L19.1512 27.8598L22.0599 23.0777L21.0837 22.4837L18.1742 27.2658L17.6784 21.2166L16.5387 21.3102L17.0345 27.3594L13.3852 23.1146L12.5179 23.8605L16.1673 28.1047L10.2608 26.7071L9.99756 27.8199L15.904 29.2175L10.7397 31.3764L11.181 32.4317L16.3453 30.2728L13.191 35.4578L14.168 36.0526L17.3223 30.8668L17.7797 36.4455L18.9194 36.3519L18.462 30.7732L22.4183 35.3757L23.2855 34.6305L19.3285 30.0279L24.776 31.3165L25.0392 30.2037L19.5925 28.9151L25.1919 26.5743Z" fill="#738BFF"/>
<path d="M20.0468 8.60182L21.225 11.3317L24.0939 10.5506L22.6942 13.1742L25.0935 14.9306L22.1698 15.4717L22.2927 18.4429L20.0468 16.4941L17.8003 18.4429L17.9237 15.4717L14.9995 14.9306L17.3988 13.1742L15.9991 10.5506L18.8685 11.3317L20.0468 8.60182Z" fill="#A3B2FF"/>
<path d="M42.0513 31.2511L35.8865 26.5181L28.3501 28.4163L30.9466 21.0901L26.8117 14.508L34.5814 14.7134L39.5635 8.74792L41.7695 16.2005L48.9821 19.0956L42.5768 23.4965L42.0513 31.2511Z" fill="#FFE802"/>
<path d="M30.7392 31.614C36.8063 31.6306 41.2791 35.0158 41.2791 39.1831C41.2791 43.3607 36.3367 46.7523 30.249 46.7523" stroke="#0454EF" stroke-width="1.60057" stroke-miterlimit="1.5" stroke-linecap="round" stroke-linejoin="round"/>
<path d="M30.623 38.1514C36.6901 38.1681 41.1629 41.5533 41.1629 45.7206C41.1629 49.8981 36.2205 53.2898 30.1328 53.2898" stroke="#0454EF" stroke-width="1.60057" stroke-miterlimit="1.5" stroke-linecap="round" stroke-linejoin="round"/>
<path d="M30.1069 44.6977C36.1739 44.7144 40.6468 48.0995 40.6468 52.2669C40.6468 56.4444 35.7044 59.8361 29.6167 59.8361" stroke="#0454EF" stroke-width="1.60057" stroke-miterlimit="1.5" stroke-linecap="round" stroke-linejoin="round"/>
<path d="M30.1069 51.1403C36.174 51.157 40.6468 54.5422 40.6468 58.7095" stroke="#0454EF" stroke-width="1.60057" stroke-miterlimit="1.5" stroke-linecap="round" stroke-linejoin="round"/>
<path d="M30.2492 46.7523C24.7954 46.7523 20.3677 44.8041 20.3677 42.4044C20.3677 40.0129 24.7654 38.0697 30.1936 38.0565" stroke="#0454EF" stroke-width="1.66605" stroke-miterlimit="1.5" stroke-linecap="round" stroke-linejoin="round"/>
<path d="M30.133 53.2899C24.6792 53.2899 20.2515 51.3417 20.2515 48.942C20.2515 46.5505 24.6492 44.6073 30.0774 44.5941" stroke="#0454EF" stroke-width="1.66605" stroke-miterlimit="1.5" stroke-linecap="round" stroke-linejoin="round"/>
<path d="M29.6163 59.8362C26.0644 59.8362 23.1807 57.888 23.1807 55.4883C23.1807 53.0968 26.0448 51.1536 29.5801 51.1404" stroke="#0454EF" stroke-width="1.60544" stroke-miterlimit="1.5" stroke-linecap="round" stroke-linejoin="round"/>
</svg>
