<svg width="70" height="70" viewBox="0 0 70 70" fill="none" xmlns="http://www.w3.org/2000/svg">
<path d="M66 0H4C1.79086 0 0 1.79086 0 4V66C0 68.2091 1.79086 70 4 70H66C68.2091 70 70 68.2091 70 66V4C70 1.79086 68.2091 0 66 0Z" fill="#FEF9EF"/>
<path fill-rule="evenodd" clip-rule="evenodd" d="M25.0708 23.2683V20.2439C25.0708 13.8251 32.1059 13.9011 32.4612 11.5003C32.6537 10.1994 31.3578 8.79968 31.7957 7.83464C32.1281 7.10278 32.6222 5.98692 34.1434 5.98692C35.6905 5.98692 36.1757 7.11923 36.5076 7.872C36.9331 8.83577 35.6354 10.2159 35.8257 11.5003C36.1874 13.9436 43.2161 13.8251 43.2161 20.2439V23.2683" fill="#E8BD42"/>
<path d="M35.6196 14.0316C36.6365 14.4435 38.5577 15.5524 38.8052 15.695C40.3722 16.5992 40.9391 17.8481 41.0429 18.0768" stroke="#FEF9EF" stroke-width="0.995157" stroke-miterlimit="1.5" stroke-linecap="round" stroke-linejoin="round"/>
<path fill-rule="evenodd" clip-rule="evenodd" d="M40.7366 29.1006C42.019 29.1006 43.2426 29.641 44.1058 30.5894C44.9698 31.5377 45.3942 32.8059 45.2746 34.0827C44.9517 37.6005 44.6793 41.9555 44.7447 46.0018C44.8539 52.7452 45.8081 58.6386 45.8081 58.6386C45.8081 62.0075 43.1945 64.7431 39.9757 64.7431H28.3109C25.0922 64.7431 22.4785 62.0075 22.4785 58.6386L23.7586 44.9724C23.7586 44.9724 23.2002 38.0487 22.8209 33.347C22.7329 32.2537 23.1062 31.1722 23.8497 30.3657C24.594 29.5591 25.6416 29.1006 26.7388 29.1006C30.683 29.1006 36.5523 29.1006 40.7366 29.1006Z" fill="#FEF9EF"/>
<path fill-rule="evenodd" clip-rule="evenodd" d="M23.0776 34.1651C22.9478 32.872 23.3707 31.5847 24.242 30.6207C25.1133 29.6567 26.3518 29.1064 27.6522 29.1064C31.5442 29.1006 36.8522 29.1005 40.7229 29.1005C42.0233 29.1005 43.2638 29.6509 44.1371 30.615C45.0095 31.579 45.4345 32.8671 45.3057 34.1618C44.8502 38.7456 44.2507 44.7866 44.2507 44.7866L45.8088 60.5985C45.8088 60.5985 43.6016 64.743 39.7228 64.743H26.4939C26.4939 64.743 22.7246 62.7529 22.7246 59.3759C22.7246 58.5131 23.672 52.5268 23.672 45.1745C23.672 41.1867 23.3748 37.1806 23.0776 34.1651Z" fill="#B1BFFF"/>
<path fill-rule="evenodd" clip-rule="evenodd" d="M44.8258 38.958C44.4665 41.7397 44.126 44.9597 44.126 47.1517C44.126 51.779 45.6421 61.0898 45.6421 61.0898C45.6421 61.0898 43.4943 64.7431 39.7198 64.7431H26.8467C26.8467 64.7431 22.9399 64.1389 22.9399 61.1622C22.9399 60.4023 24.1007 53.9746 24.1007 47.4937C24.1007 46.0659 23.9458 46.6723 23.8698 45.2994C26.6374 42.7531 28.8534 40.8125 35.9582 40.8972C41.4965 40.9637 44.8406 36.7857 45.0706 36.4701L44.8258 38.958Z" fill="white"/>
<path d="M37.1683 38.8214H31.9839" stroke="#738BFF" stroke-width="1.14648" stroke-miterlimit="1.5" stroke-linecap="round" stroke-linejoin="round"/>
<path d="M39.7608 34.4876H29.3921" stroke="#738BFF" stroke-width="1.25007" stroke-miterlimit="1.5" stroke-linecap="round" stroke-linejoin="round"/>
<path d="M39.7608 43.187H29.3921" stroke="#738BFF" stroke-width="1.25007" stroke-miterlimit="1.5" stroke-linecap="round" stroke-linejoin="round"/>
<path d="M34.5752 60.4681V31.9542" stroke="#738BFF" stroke-width="1.22357" stroke-miterlimit="1.5" stroke-linecap="round" stroke-linejoin="round"/>
<path d="M37.1683 47.449H31.9839" stroke="#738BFF" stroke-width="1.14648" stroke-miterlimit="1.5" stroke-linecap="round" stroke-linejoin="round"/>
<path d="M39.7608 51.9603H29.3921" stroke="#738BFF" stroke-width="1.25007" stroke-miterlimit="1.5" stroke-linecap="round" stroke-linejoin="round"/>
<path d="M37.1683 56.7002H31.9839" stroke="#738BFF" stroke-width="1.14648" stroke-miterlimit="1.5" stroke-linecap="round" stroke-linejoin="round"/>
<path fill-rule="evenodd" clip-rule="evenodd" d="M40.0149 29.1006C41.4892 29.1006 42.8965 29.7119 43.9034 30.7886C44.9096 31.8662 45.4243 33.3116 45.325 34.7822C44.9999 38.7426 44.6357 43.6625 44.6357 45.6766C44.6357 47.3527 45.8081 58.6386 45.8081 58.6386C45.8081 62.0075 43.1945 64.7431 39.9757 64.7431H28.3109C25.0922 64.7431 22.4785 62.0075 22.4785 58.6386C22.4785 58.6386 23.6141 49.7079 23.6141 45.1756C23.6141 42.5967 23.3026 38.307 23.0053 34.8081C22.8985 33.3344 23.4094 31.8827 24.4156 30.8005C25.4218 29.7182 26.8329 29.1038 28.3109 29.1038C31.8864 29.1007 36.4462 29.1006 40.0149 29.1006Z" stroke="#738BFF" stroke-width="1.25124" stroke-miterlimit="1.5" stroke-linecap="round" stroke-linejoin="round"/>
<path fill-rule="evenodd" clip-rule="evenodd" d="M45.8797 23.6659V27.2894C45.8797 28.2895 45.168 29.1011 44.2919 29.1011H23.995C23.119 29.1011 22.4072 28.2895 22.4072 27.2894V23.6659C22.4072 22.6658 23.119 21.8541 23.995 21.8541H44.2919C45.168 21.8541 45.8797 22.6658 45.8797 23.6659Z" fill="#738BFF"/>
</svg>
