<svg width="70" height="70" viewBox="0 0 70 70" fill="none" xmlns="http://www.w3.org/2000/svg">
<path d="M66 0H4C1.79086 0 0 1.79086 0 4V66C0 68.2091 1.79086 70 4 70H66C68.2091 70 70 68.2091 70 66V4C70 1.79086 68.2091 0 66 0Z" fill="#FEF9EF"/>
<path d="M43.5558 39.1639L34.7529 46.069C31.2199 48.8399 30.6025 53.9504 33.3734 57.4826C36.1443 61.0156 41.2548 61.6329 44.787 58.8621L53.5899 51.957L43.5551 39.1639H43.5558Z" fill="#D0D8FF"/>
<path d="M62.3942 45.0519C65.9271 42.281 66.5445 37.1705 63.7736 33.6383C61.0028 30.1053 55.8923 29.4879 52.36 32.2588L43.5571 39.1639L53.592 51.957L62.3949 45.0519H62.3942Z" fill="#738BFF"/>
<path d="M36.4844 49.3034L55.0348 34.6673" stroke="#FEF9EF" stroke-width="0.992158" stroke-miterlimit="10" stroke-linecap="round"/>
<path d="M11.3364 25.3475L9.99443 36.4549C9.45555 40.9125 12.6327 44.9628 17.0898 45.5011C21.5473 46.04 25.5976 42.8629 26.136 38.4058L27.478 27.2984L11.3359 25.348L11.3364 25.3475Z" fill="#F16755"/>
<path d="M28.8204 16.1905C29.3593 11.733 26.1821 7.68269 21.7251 7.1443C17.2675 6.60542 13.2172 9.78258 12.6788 14.2396L11.3368 25.347L27.4789 27.2974L28.8209 16.19L28.8204 16.1905Z" fill="#FFE802"/>
<path d="M13.5057 37.5183L16.2736 14.0514" stroke="#FEF9EF" stroke-width="0.992176" stroke-miterlimit="10" stroke-linecap="round"/>
<path d="M41.0662 30.7301C40.5565 30.7301 40.1695 30.5832 39.905 30.2892C39.6404 29.9952 39.5082 29.5049 39.5082 28.8194L39.6257 25.7033C39.6257 25.4681 39.567 25.3065 39.4494 25.2183C39.3318 25.1301 39.126 25.086 38.832 25.086L37.0388 25.1448L35.8629 25.2036C34.5889 25.2036 33.9521 24.6838 33.9521 23.6456C33.9521 22.6067 34.5889 22.0876 35.8629 22.0876L39.0672 22.1757C39.263 22.1757 39.4005 22.1316 39.4787 22.0434C39.5569 21.9553 39.5964 21.803 39.5964 21.5878L39.5375 19.6476L39.5082 18.4424C39.5082 17.7562 39.6404 17.2665 39.905 16.9725C40.1695 16.6786 40.5565 16.5316 41.0662 16.5316C42.0657 16.5316 42.5654 17.1683 42.5654 18.4424C42.5654 18.7951 42.546 19.3437 42.5066 20.0886L42.4772 21.529C42.4772 21.7642 42.5166 21.9306 42.5948 22.0287C42.673 22.1263 42.8106 22.1757 43.0063 22.1757L44.4174 22.1463C45.1623 22.1069 45.7502 22.0876 46.1812 22.0876C47.4553 22.0876 48.092 22.6067 48.092 23.6456C48.092 24.1547 47.945 24.5422 47.651 24.8067C47.3571 25.0713 46.8673 25.2036 46.1812 25.2036L44.2998 25.1448L43.124 25.086C42.8888 25.086 42.7224 25.1495 42.6242 25.2771C42.526 25.4041 42.4772 25.6051 42.4772 25.8797L42.5066 27.2025C42.546 27.9469 42.5654 28.5154 42.5654 28.9076C42.5654 30.1222 42.0657 30.7301 41.0662 30.7301Z" fill="#738BFF"/>
</svg>
