<?xml version="1.0" encoding="UTF-8"?>
<svg id="BLANC" xmlns="http://www.w3.org/2000/svg" version="1.1" viewBox="0 0 1491.52 184.79" width="1506.14" height="184.79">
  <!-- Generator: Adobe Illustrator 29.1.0, SVG Export Plug-In . SVG Version: 2.1.0 Build 142)  -->
  <defs>
    <style>
      .st0 {
        fill: #fff;
      }
    </style>
  </defs>
  <g>
    <path class="st0" d="M235.5,39.25v13.08h-26.17v-13.08c0-7.23-5.86-13.08-13.08-13.08s-13.08,5.86-13.08,13.08v39.25h26.17v26.17h-26.17v39.25c0,4.59-.78,9-2.24,13.08-3.94,11.15-12.78,19.99-23.93,23.93-4.08,1.45-8.49,2.24-13.08,2.24-17.08,0-31.62-10.92-37.01-26.17-.32-.9-.61-1.82-.86-2.76-.9-3.29-1.38-6.75-1.38-10.32v-26.17c0-7.23-5.86-13.08-13.08-13.08s-13.08,5.86-13.08,13.08v39.25h-26.17v-2.24c-4.08,1.45-8.49,2.24-13.08,2.24s-9-.79-13.08-2.24C10.92,149.37,0,134.83,0,117.75v-39.25h26.17v39.25c0,7.22,5.86,13.08,13.08,13.08s13.08-5.86,13.08-13.08v-39.25h26.17v2.24c4.08-1.45,8.49-2.24,13.08-2.24s9,.78,13.08,2.24c12.07,4.26,21.41,14.25,24.79,26.69.9,3.29,1.38,6.75,1.38,10.32v26.17c0,7.22,5.86,13.08,13.08,13.08s13.08-5.86,13.08-13.08v-39.25h-13.08v-26.17h13.08v-39.25c0-4.59.78-9,2.24-13.08C164.63,10.92,179.17,0,196.25,0s31.62,10.92,37.01,26.17c1.45,4.08,2.24,8.49,2.24,13.08Z"/>
    <circle class="st0" cx="13.08" cy="39.25" r="13.08"/>
    <path class="st0" d="M261.09,113.88c-3.52-2.14-6.5-5.12-8.64-8.64,4.11,1.26,7.37,4.52,8.64,8.64Z"/>
    <path class="st0" d="M248.59,78.5c-17.08,0-31.62,10.92-37.01,26.17h-2.24v-26.17h39.25Z"/>
    <path class="st0" d="M274.75,78.5v10.02c-6.15-5.52-14.03-9.11-22.75-9.86-1.12-.12-2.27-.16-3.42-.16-17.08,0-31.62,10.92-37.01,26.17-1.45,4.08-2.24,8.49-2.24,13.08,0,21.67,17.58,39.25,39.25,39.25s39.25-17.58,39.25-39.25c0-1.15-.04-2.3-.16-3.42,7.91-4.49,13.24-13,13.24-22.75v-13.08h-26.17ZM248.59,130.84c-7.22,0-13.08-5.86-13.08-13.08s5.86-13.08,13.08-13.08h3.52c.1.19.22.39.35.58,4.11,1.26,7.37,4.52,8.64,8.64.38,1.22.58,2.53.58,3.87,0,7.22-5.86,13.08-13.08,13.08Z"/>
  </g>
  <g>
    <polygon class="st0" points="471.01 26.17 471.01 157 444.84 157 444.84 96.82 405.59 143.92 366.34 96.82 366.34 157 340.17 157 340.17 26.17 366.34 57.57 405.59 104.67 444.84 57.57 471.01 26.17"/>
    <polygon class="st0" points="1151.35 26.17 1151.35 157 1125.18 157 1125.18 96.82 1085.93 143.92 1046.68 96.82 1046.68 157 1020.51 157 1020.51 26.17 1046.68 57.57 1085.93 104.67 1125.18 57.57 1151.35 26.17"/>
    <polygon class="st0" points="1203.68 52.33 1203.68 78.5 1229.85 78.5 1229.85 104.67 1203.68 104.67 1203.68 130.84 1256.02 130.84 1256.02 157 1177.52 157 1177.52 26.17 1256.02 26.17 1256.02 52.33 1203.68 52.33"/>
    <path class="st0" d="M641.09,26.17c-4.48,0-8.85.45-13.08,1.31v-1.31h-26.17v130.84h26.17v-1.31c4.23.86,8.61,1.31,13.08,1.31,36.12,0,65.42-29.29,65.42-65.42s-29.29-65.42-65.42-65.42ZM641.09,130.84c-4.59,0-9-.79-13.08-2.24V54.57c4.09-1.45,8.49-2.24,13.08-2.24,21.67,0,39.25,17.58,39.25,39.25s-17.58,39.25-39.25,39.25Z"/>
    <rect class="st0" x="732.68" y="26.17" width="26.17" height="130.84"/>
    <path class="st0" d="M878.18,119.34l18.51,18.51c-11.83,11.83-28.2,19.16-46.26,19.16s-34.42-7.33-46.26-19.16c-11.83-11.83-19.16-28.2-19.16-46.26s7.33-34.42,19.16-46.26c11.83-11.83,28.2-19.16,46.26-19.16s34.42,7.33,46.26,19.16l-18.51,18.51c-7.11-7.11-16.91-11.5-27.75-11.5s-20.64,4.39-27.75,11.5c-7.11,7.11-11.5,16.91-11.5,27.75s4.39,20.64,11.5,27.75c7.11,7.11,16.91,11.5,27.75,11.5s20.64-4.39,27.75-11.5Z"/>
    <line class="st0" x1="1033.6" y1="124.29" x2="1030.98" y2="117.75"/>
    <polygon class="st0" points="1386.85 26.17 1386.85 157 1360.68 157 1308.35 73.27 1308.35 157 1282.18 157 1282.18 26.17 1308.35 26.17 1360.68 109.9 1360.68 26.17 1386.85 26.17"/>
    <line class="st0" x1="1373.77" y1="130.84" x2="1360.68" y2="109.9"/>
    <line class="st0" x1="1308.35" y1="73.27" x2="1295.27" y2="52.33"/>
    <polygon class="st0" points="1491.52 26.17 1491.52 52.33 1465.35 52.33 1465.35 157 1439.19 157 1439.19 52.33 1413.02 52.33 1413.02 26.17 1491.52 26.17"/>
    <path class="st0" d="M994.35,124.29l-2.62-6.54-36.63-91.58-36.63,91.58-2.62,6.54-13.08,32.71h26.17l5.23-13.08h41.87l5.23,13.08h26.17l-13.08-32.71ZM944.63,117.75l10.47-26.17,10.47,26.17h-20.93Z"/>
    <path class="st0" d="M523.34,52.33v26.17h26.17v26.17h-26.17v26.17h52.33v26.17h-78.5V26.17h39.25c7.22,0,13.08-5.86,13.08-13.08h26.17v13.08c0,14.45-11.72,26.17-26.17,26.17h-26.17Z"/>
  </g>
</svg>