<?xml version="1.0" encoding="UTF-8"?>
<svg xmlns="http://www.w3.org/2000/svg" version="1.1" viewBox="0 0 1442.82 167.25" width="1442.82" height="167.25">
  <defs>
    <style>
      .st0 {
        fill: #039;
      }

      .st1 {
        fill: #3a86ff;
      }
    </style>
  </defs>
  <g>
    <path class="st0" d="M11.8,49.28c6.51,0,11.8-5.28,11.8-11.8s-5.28-11.8-11.8-11.8S0,30.96,0,37.48s5.28,11.8,11.8,11.8Z"/>
    <path class="st0" d="M247.74,72.87v9.03c-5.54-4.98-12.65-8.22-20.51-8.89-1.01-.1-2.04-.14-3.08-.14h-58.98v-35.39c0-6.51,5.28-11.8,11.8-11.8s11.8,5.28,11.8,11.8v11.8h23.59v-11.8c0-4.14-.71-8.11-2.02-11.8-4.86-13.75-17.97-23.59-33.37-23.59s-28.51,9.84-33.37,23.59c-1.31,3.68-2.02,7.65-2.02,11.8v35.39h-11.8v23.59h11.8v35.39c0,6.51-5.28,11.8-11.8,11.8s-11.8-5.28-11.8-11.8v-23.59c0-3.22-.43-6.34-1.25-9.31-3.04-11.22-11.47-20.23-22.35-24.07-3.68-1.31-7.65-2.02-11.8-2.02s-8.11.71-11.8,2.02v-2.02h-23.59v35.39c0,6.51-5.28,11.8-11.8,11.8s-11.8-5.28-11.8-11.8v-35.39H0v35.39c0,15.4,9.84,28.51,23.59,33.37,3.68,1.31,7.66,2.02,11.8,2.02s8.11-.71,11.8-2.02v2.02h23.59v-35.39c0-6.51,5.28-11.8,11.8-11.8s11.8,5.28,11.8,11.8v23.59c0,3.22.43,6.34,1.25,9.31.22.85.48,1.68.77,2.49,4.86,13.75,17.97,23.59,33.37,23.59,4.14,0,8.11-.71,11.8-2.02,10.05-3.55,18.02-11.52,21.58-21.58,1.31-3.68,2.02-7.66,2.02-11.8v-35.39h25.61c-1.31,3.68-2.02,7.65-2.02,11.8,0,19.54,15.85,35.39,35.39,35.39s35.39-15.85,35.39-35.39c0-1.04-.04-2.07-.14-3.08,7.13-4.05,11.94-11.72,11.94-20.51v-11.8h-23.59ZM224.14,120.06c-6.51,0-11.8-5.28-11.8-11.8s5.28-11.8,11.8-11.8h3.17c.09.17.2.35.31.52,1.93,3.17,4.61,5.86,7.79,7.79.34,1.1.52,2.28.52,3.49,0,6.51-5.28,11.8-11.8,11.8Z"/>
  </g>
  <g>
    <path class="st1" d="M598.67,10.82c-3.69,0-7.3.31-10.82.9v-.9h-21.64v129.87h21.64v-.9c3.52.59,7.13.9,10.82.9,35.86,0,64.93-29.08,64.93-64.93s-29.08-64.93-64.93-64.93ZM598.67,119.05c-3.74,0-7.36-.47-10.82-1.36V33.83c3.46-.89,7.08-1.36,10.82-1.36,23.91,0,43.29,19.38,43.29,43.29s-19.38,43.29-43.29,43.29Z"/>
    <rect class="st1" x="685.25" y="10.82" width="21.64" height="129.87"/>
    <polygon class="st1" points="306.46 10.82 306.46 140.69 328.11 140.69 328.11 82.97 371.4 140.69 414.69 82.97 414.69 140.69 436.33 140.69 436.33 10.82 371.4 97.4 306.46 10.82"/>
    <path class="st1" d="M926.95,97.4l-3.61-8.66-21.64-51.95-10.82-25.97-10.82,25.97-21.64,51.95-3.61,8.66-7.21,17.32-10.82,25.97h21.64l9.27-21.64h46.39l9.27,21.64h21.64l-10.82-25.97-7.21-17.32ZM901.7,97.4h-24.74l3.09-7.21,10.82-25.25,10.82,25.25,3.09,7.21h-3.09Z"/>
    <path class="st1" d="M769.46,39.73c6.88-4.58,15.13-7.26,24.01-7.26s17.14,2.68,24.01,7.26l12.01-18c-10.31-6.89-22.7-10.91-36.03-10.91s-25.72,4.02-36.03,10.91c-2.56,1.71-4.99,3.6-7.26,5.64-13.29,11.89-21.64,29.16-21.64,48.39s8.36,36.5,21.64,48.39c2.27,2.04,4.7,3.93,7.26,5.64,10.31,6.89,22.7,10.91,36.03,10.91s25.72-4.02,36.03-10.91l-12.01-18c-6.88,4.58-15.13,7.26-24.01,7.26s-17.14-2.68-24.01-7.26c-11.62-7.77-19.28-21.01-19.28-36.03s7.66-28.26,19.28-36.03Z"/>
    <polygon class="st1" points="966.63 10.82 966.63 140.69 988.28 140.69 988.28 82.97 1031.57 140.69 1074.86 82.97 1074.86 140.69 1096.5 140.69 1096.5 10.82 1031.57 97.4 966.63 10.82"/>
    <polygon class="st1" points="1118.15 140.69 1204.73 140.69 1204.73 119.05 1139.79 119.05 1139.79 86.58 1183.08 86.58 1183.08 64.93 1139.79 64.93 1139.79 32.47 1204.73 32.47 1204.73 10.82 1118.15 10.82 1118.15 140.69"/>
    <polygon class="st1" points="1442.82 10.82 1356.24 10.82 1356.24 32.47 1388.71 32.47 1388.71 140.69 1410.36 140.69 1410.36 32.47 1442.82 32.47 1442.82 10.82"/>
    <polygon class="st1" points="1334.6 10.82 1334.6 140.69 1312.95 140.69 1248.02 51.41 1248.02 140.69 1226.37 140.69 1226.37 10.82 1248.02 10.82 1312.95 100.11 1312.95 10.82 1334.6 10.82"/>
    <path class="st1" d="M544.56,0v16.23c0,1.9-.32,3.73-.93,5.41-2.22,6.31-8.24,10.82-15.31,10.82h-48.7v32.47h43.29v21.64h-43.29v32.47h64.93v21.64h-86.58V10.82h59.52c2.99,0,5.41-2.42,5.41-5.41V0h21.64Z"/>
  </g>
</svg>