<svg width="24" height="24" viewBox="1 1 10 10" fill="none" xmlns="http://www.w3.org/2000/svg">
    <g>
        <path d="M6 8.99951C6.66667 8.99951 7.3 8.87451 7.9 8.62451C8.5 8.37451 9.03333 8.01618 9.5 7.54951L8.975 7.02451C8.88333 7.11618 8.79375 7.19743 8.70625 7.26826C8.61875 7.3391 8.525 7.40785 8.425 7.47451L8 6.74951V5.49951H8.5V4.99951H5.7L4.825 3.49951H3L3.5 3.87451L2.75 4.74951L3.225 5.24951L4 4.74951V6.74951L3.575 7.47451C3.475 7.40785 3.38125 7.3391 3.29375 7.26826C3.20625 7.19743 3.11667 7.11618 3.025 7.02451L2.5 7.54951C2.96667 8.01618 3.5 8.37451 4.1 8.62451C4.7 8.87451 5.33333 8.99951 6 8.99951ZM6 8.24951C5.68333 8.24951 5.37708 8.21826 5.08125 8.15576C4.78542 8.09326 4.5 7.99118 4.225 7.84951L4.65 7.12451C4.86667 7.20785 5.08958 7.26826 5.31875 7.30576C5.54792 7.34326 5.775 7.36201 6 7.36201C6.23333 7.36201 6.4625 7.34326 6.6875 7.30576C6.9125 7.26826 7.13333 7.20785 7.35 7.12451L7.775 7.84951C7.5 7.97451 7.21458 8.07243 6.91875 8.14326C6.62292 8.2141 6.31667 8.24951 6 8.24951ZM2 10.9995C1.725 10.9995 1.48958 10.9016 1.29375 10.7058C1.09792 10.5099 1 10.2745 1 9.99951V1.99951C1 1.72451 1.09792 1.4891 1.29375 1.29326C1.48958 1.09743 1.725 0.999512 2 0.999512H10C10.275 0.999512 10.5104 1.09743 10.7063 1.29326C10.9021 1.4891 11 1.72451 11 1.99951V9.99951C11 10.2745 10.9021 10.5099 10.7063 10.7058C10.5104 10.9016 10.275 10.9995 10 10.9995H2Z" fill="#161616"/>
    </g>
</svg>