<svg width="40" height="40" viewBox="0 0 40 40" fill="none" xmlns="http://www.w3.org/2000/svg">
<mask id="mask0_24760_20908" style="mask-type:alpha" maskUnits="userSpaceOnUse" x="0" y="-1" width="40" height="41">
<rect y="-0.000488281" width="40" height="40" fill="#D9D9D9"/>
</mask>
<g mask="url(#mask0_24760_20908)">
<path d="M25.3333 34.9995L14.6946 31.2495L7.13875 34.2216C6.63875 34.4624 6.15736 34.4324 5.69458 34.1316C5.23153 33.8305 5 33.3976 5 32.8328V9.55493C5 9.19382 5.10417 8.87437 5.3125 8.5966C5.52083 8.31882 5.79625 8.11048 6.13875 7.9716L14.6946 4.99951L25.3333 8.7216L32.8612 5.74951C33.3612 5.52729 33.8426 5.56201 34.3054 5.85368C34.7685 6.14535 35 6.57354 35 7.13826V30.6108C35 30.9347 34.8958 31.217 34.6875 31.4578C34.4792 31.6987 34.2129 31.8792 33.8888 31.9995L25.3333 34.9995ZM23.8333 31.5549V11.0274L16.1667 8.41618V28.9441L23.8333 31.5549ZM26.6112 31.5549L32.2221 29.6941V8.88826L26.6112 11.0274V31.5549ZM7.77792 31.0828L13.3888 28.9441V8.41618L7.77792 10.2774V31.0828Z" fill="#1C1B1F"/>
</g>
</svg>
