<svg width="22" height="22" viewBox="0 0 22 22" fill="none" xmlns="http://www.w3.org/2000/svg">
<rect width="22" height="22" rx="11" fill="#FFBDB3"/>
<path d="M8 7.25C7.7875 7.25 7.60938 7.17813 7.46563 7.03438C7.32188 6.89063 7.25 6.7125 7.25 6.5C7.25 6.2875 7.32188 6.10938 7.46563 5.96563C7.60938 5.82188 7.7875 5.75 8 5.75H10.25V4.25C10.25 4.0375 10.3219 3.85938 10.4656 3.71563C10.6094 3.57188 10.7875 3.5 11 3.5C11.2125 3.5 11.3906 3.57188 11.5344 3.71563C11.6781 3.85938 11.75 4.0375 11.75 4.25V5.75H14C14.2125 5.75 14.3906 5.82188 14.5344 5.96563C14.6781 6.10938 14.75 6.2875 14.75 6.5C14.75 6.7125 14.6781 6.89063 14.5344 7.03438C14.3906 7.17813 14.2125 7.25 14 7.25H8ZM8.75 18.5C8.3375 18.5 7.98438 18.3531 7.69063 18.0594C7.39687 17.7656 7.25 17.4125 7.25 17V10.25C7.25 9.625 7.46875 9.09375 7.90625 8.65625C8.34375 8.21875 8.875 8 9.5 8H12.5C13.125 8 13.6563 8.21875 14.0938 8.65625C14.5313 9.09375 14.75 9.625 14.75 10.25V17C14.75 17.4125 14.6031 17.7656 14.3094 18.0594C14.0156 18.3531 13.6625 18.5 13.25 18.5H8.75ZM8.75 17H13.25V10.25C13.25 10.0375 13.1781 9.85938 13.0344 9.71563C12.8906 9.57188 12.7125 9.5 12.5 9.5H9.5C9.2875 9.5 9.10938 9.57188 8.96563 9.71563C8.82188 9.85938 8.75 10.0375 8.75 10.25V11H10.25C10.4625 11 10.6406 11.0719 10.7844 11.2156C10.9281 11.3594 11 11.5375 11 11.75C11 11.9625 10.9281 12.1406 10.7844 12.2844C10.6406 12.4281 10.4625 12.5 10.25 12.5H8.75V14H10.25C10.4625 14 10.6406 14.0719 10.7844 14.2156C10.9281 14.3594 11 14.5375 11 14.75C11 14.9625 10.9281 15.1406 10.7844 15.2844C10.6406 15.4281 10.4625 15.5 10.25 15.5H8.75V17Z" fill="#1F1F1F"/>
</svg>
