<svg width="24" height="24" viewBox="0 0 16 16" fill="none" xmlns="http://www.w3.org/2000/svg">
<path d="M13.2801 7.44124C14.4851 6.53322 14.7258 4.82029 13.8178 3.6153C12.9098 2.41032 11.1968 2.16958 9.99186 3.0776L6.2591 5.89044C6.2591 5.89044 7.67318 6.74928 8.31733 7.55909C9.03751 8.46449 9.54734 10.2541 9.54734 10.2541L13.2801 7.44124Z" fill="#CFCFCF"/>
<ellipse cx="0.705126" cy="0.642252" rx="0.705126" ry="0.642252" transform="matrix(-0.601815 -0.798636 -0.798636 0.601815 12.9658 3.93158)" fill="white"/>
<rect width="5.46386" height="14.5703" rx="2.73193" transform="matrix(-0.601815 -0.798636 -0.798636 0.601815 15.4619 5.79749)" stroke="#161616" stroke-linecap="round" stroke-linejoin="round"/>
<path d="M9.53725 10.241C9.53725 10.241 8.95117 8.45054 8.20459 7.543C7.59481 6.80176 6.31752 5.96827 6.31752 5.96827" stroke="#161616" stroke-linecap="round" stroke-linejoin="round"/>
</svg>
