<svg width="22" height="22" viewBox="0 0 22 22" fill="none" xmlns="http://www.w3.org/2000/svg">
<rect width="22" height="22" rx="11" fill="#FFBDB3"/>
<mask id="mask0_26835_8013" style="mask-type:alpha" maskUnits="userSpaceOnUse" x="2" y="2" width="18" height="18">
<rect x="2" y="2" width="18" height="18" fill="#D9D9D9"/>
</mask>
<g mask="url(#mask0_26835_8013)">
<path d="M9.63744 18.5V14.9999H8V9.32506C8 8.70006 8.18956 8.19794 8.56869 7.81869C8.94794 7.43956 9.44794 7.25 10.0687 7.25C10.6896 7.25 11.1833 7.46044 11.5499 7.88131C11.9167 8.30206 12.1001 8.78331 12.1001 9.32506C12.6833 9.43756 13.1458 9.71044 13.4876 10.1437C13.8292 10.5771 14 11.1 14 11.7125V14.9999H11.3126V18.5H9.63744ZM10.076 6.32506C9.68788 6.32506 9.35525 6.18681 9.07813 5.91031C8.801 5.63394 8.66244 5.30169 8.66244 4.91356C8.66244 4.52531 8.80069 4.19269 9.07719 3.91569C9.35356 3.63856 9.68581 3.5 10.0739 3.5C10.4622 3.5 10.7948 3.63819 11.0718 3.91456C11.3489 4.19106 11.4875 4.52338 11.4875 4.9115C11.4875 5.29963 11.3493 5.63225 11.0729 5.90938C10.7964 6.1865 10.4641 6.32506 10.076 6.32506Z" fill="#161616"/>
</g>
</svg>
