<svg width="16" height="16" viewBox="0 0 12 12" fill="none" xmlns="http://www.w3.org/2000/svg">
    <g>
        <path d="M5.09162 10.9995V8.66614H4V4.88289C4 4.46622 4.12637 4.13147 4.37912 3.87864C4.63196 3.62589 4.96529 3.49951 5.37912 3.49951C5.79304 3.49951 6.12221 3.6398 6.36662 3.92039C6.61112 4.20089 6.73337 4.52172 6.73337 4.88289C7.12221 4.95789 7.43054 5.1398 7.65837 5.42864C7.88612 5.71755 8 6.06618 8 6.47451V8.66614H6.20838V10.9995H5.09162ZM5.384 2.88289C5.12525 2.88289 4.9035 2.79072 4.71875 2.60639C4.534 2.42214 4.44162 2.20064 4.44162 1.94189C4.44162 1.68305 4.53379 1.4613 4.71813 1.27664C4.90238 1.09189 5.12387 0.999512 5.38262 0.999512C5.64146 0.999512 5.86321 1.09164 6.04787 1.27589C6.23262 1.46022 6.325 1.68176 6.325 1.94051C6.325 2.19926 6.23288 2.42101 6.04862 2.60576C5.86429 2.79051 5.64275 2.88289 5.384 2.88289Z" fill="#161616"/>
    </g>
</svg>