<?xml version="1.0" encoding="UTF-8"?>
<svg id="COULEURS" xmlns="http://www.w3.org/2000/svg" version="1.1" viewBox="0 0 1506.14 184.79" width="1506.14" height="184.79">
  <!-- Generator: Adobe Illustrator 29.1.0, SVG Export Plug-In . SVG Version: 2.1.0 Build 142)  -->
  <defs>
    <style>
      .st0 {
        fill: #039;
      }

      .st1 {
        fill: #3a86ff;
      }
    </style>
  </defs>
  <g>
    <path class="st0" d="M237.59,39.6v13.2h-26.4v-13.2c0-7.29-5.91-13.2-13.2-13.2s-13.2,5.91-13.2,13.2v39.6h26.4v26.4h-26.4v39.6c0,4.63-.79,9.08-2.26,13.2-3.97,11.25-12.89,20.17-24.14,24.14-4.12,1.47-8.56,2.26-13.2,2.26-17.23,0-31.9-11.01-37.34-26.4-.32-.91-.62-1.83-.87-2.79-.91-3.31-1.39-6.8-1.39-10.41v-26.4c0-7.29-5.91-13.2-13.2-13.2s-13.2,5.91-13.2,13.2v39.6h-26.4v-2.26c-4.12,1.47-8.56,2.26-13.2,2.26s-9.08-.79-13.2-2.26C11.01,150.69,0,136.03,0,118.79v-39.6h26.4v39.6c0,7.29,5.91,13.2,13.2,13.2s13.2-5.91,13.2-13.2v-39.6h26.4v2.26c4.12-1.47,8.56-2.26,13.2-2.26s9.08.79,13.2,2.26c12.17,4.3,21.6,14.37,25.01,26.93.91,3.31,1.39,6.8,1.39,10.41v26.4c0,7.29,5.91,13.2,13.2,13.2s13.2-5.91,13.2-13.2v-39.6h-13.2v-26.4h13.2v-39.6c0-4.63.79-9.08,2.26-13.2,5.44-15.38,20.11-26.4,37.34-26.4s31.9,11.01,37.34,26.4c1.47,4.12,2.26,8.56,2.26,13.2Z"/>
    <circle class="st0" cx="13.2" cy="39.6" r="13.2"/>
    <path class="st0" d="M263.4,114.89c-3.55-2.16-6.56-5.16-8.71-8.71,4.15,1.28,7.44,4.56,8.71,8.71Z"/>
    <path class="st0" d="M250.79,79.2c-17.23,0-31.9,11.01-37.34,26.4h-2.26v-26.4h39.6Z"/>
    <path class="st0" d="M277.19,79.2v10.1c-6.2-5.57-14.15-9.2-22.95-9.94-1.13-.12-2.29-.16-3.45-.16-17.23,0-31.9,11.01-37.34,26.4-1.47,4.12-2.26,8.56-2.26,13.2,0,21.87,17.73,39.6,39.6,39.6s39.6-17.73,39.6-39.6c0-1.16-.04-2.32-.16-3.45,7.98-4.53,13.36-13.11,13.36-22.95v-13.2h-26.4ZM250.79,131.99c-7.29,0-13.2-5.91-13.2-13.2s5.91-13.2,13.2-13.2h3.55c.1.19.22.4.35.59,4.15,1.28,7.44,4.56,8.71,8.71.38,1.23.59,2.55.59,3.9,0,7.29-5.91,13.2-13.2,13.2Z"/>
  </g>
  <g>
    <polygon class="st1" points="475.17 26.4 475.17 158.39 448.78 158.39 448.78 97.67 409.18 145.19 369.58 97.67 369.58 158.39 343.18 158.39 343.18 26.4 369.58 58.08 409.18 105.59 448.78 58.08 475.17 26.4"/>
    <polygon class="st1" points="1161.54 26.4 1161.54 158.39 1135.14 158.39 1135.14 97.67 1095.54 145.19 1055.94 97.67 1055.94 158.39 1029.54 158.39 1029.54 26.4 1055.94 58.08 1095.54 105.59 1135.14 58.08 1161.54 26.4"/>
    <polygon class="st1" points="1214.33 52.8 1214.33 79.2 1240.73 79.2 1240.73 105.59 1214.33 105.59 1214.33 131.99 1267.13 131.99 1267.13 158.39 1187.94 158.39 1187.94 26.4 1267.13 26.4 1267.13 52.8 1214.33 52.8"/>
    <path class="st1" d="M646.77,26.4c-4.52,0-8.93.45-13.2,1.32v-1.32h-26.4v131.99h26.4v-1.32c4.27.87,8.68,1.32,13.2,1.32,36.44,0,66-29.55,66-66s-29.55-66-66-66ZM646.77,131.99c-4.63,0-9.08-.79-13.2-2.26V55.06c4.12-1.47,8.56-2.26,13.2-2.26,21.87,0,39.6,17.73,39.6,39.6s-17.73,39.6-39.6,39.6Z"/>
    <rect class="st1" x="739.16" y="26.4" width="26.4" height="131.99"/>
    <path class="st1" d="M885.95,120.39l18.67,18.67c-11.94,11.94-28.45,19.33-46.67,19.33s-34.73-7.39-46.67-19.33c-11.94-11.94-19.33-28.45-19.33-46.67s7.39-34.73,19.33-46.67c11.94-11.94,28.45-19.33,46.67-19.33s34.73,7.39,46.67,19.33l-18.67,18.67c-7.17-7.17-17.06-11.6-28-11.6s-20.83,4.43-28,11.6c-7.17,7.17-11.6,17.06-11.6,28s4.43,20.83,11.6,28c7.17,7.17,17.06,11.6,28,11.6s20.83-4.43,28-11.6Z"/>
    <line class="st1" x1="1042.74" y1="125.39" x2="1040.1" y2="118.79"/>
    <polygon class="st1" points="1399.12 26.4 1399.12 158.39 1372.73 158.39 1319.93 73.92 1319.93 158.39 1293.53 158.39 1293.53 26.4 1319.93 26.4 1372.73 110.87 1372.73 26.4 1399.12 26.4"/>
    <line class="st1" x1="1385.93" y1="131.99" x2="1372.73" y2="110.87"/>
    <line class="st1" x1="1319.93" y1="73.92" x2="1306.73" y2="52.8"/>
    <polygon class="st1" points="1504.72 26.4 1504.72 52.8 1478.32 52.8 1478.32 158.39 1451.92 158.39 1451.92 52.8 1425.52 52.8 1425.52 26.4 1504.72 26.4"/>
    <path class="st1" d="M1003.15,125.39l-2.64-6.6-36.96-92.4-36.96,92.4-2.64,6.6-13.2,33h26.4l5.28-13.2h42.24l5.28,13.2h26.4l-13.2-33ZM952.99,118.79l10.56-26.4,10.56,26.4h-21.12Z"/>
    <path class="st1" d="M527.97,52.8v26.4h26.4v26.4h-26.4v26.4h52.8v26.4h-79.2V26.4h39.6c7.29,0,13.2-5.91,13.2-13.2h26.4v13.2c0,14.58-11.82,26.4-26.4,26.4h-26.4Z"/>
  </g>
</svg>